<?xml version="1.0" encoding="UTF-8" standalone="no"?>
<!-- Generator: Adobe Illustrator 15.1.0, SVG Export Plug-In . SVG Version: 6.00 Build 0)  -->

<svg
   xmlns:dc="http://purl.org/dc/elements/1.1/"
   xmlns:cc="http://creativecommons.org/ns#"
   xmlns:rdf="http://www.w3.org/1999/02/22-rdf-syntax-ns#"
   xmlns:svg="http://www.w3.org/2000/svg"
   xmlns="http://www.w3.org/2000/svg"
   xmlns:sodipodi="http://sodipodi.sourceforge.net/DTD/sodipodi-0.dtd"
   xmlns:inkscape="http://www.inkscape.org/namespaces/inkscape"
   version="1.1"
   id="Layer_1"
   x="0px"
   y="0px"
   width="512px"
   height="512px"
   viewBox="0 0 512 512"
   enable-background="new 0 0 512 512"
   xml:space="preserve"
   inkscape:version="0.91 r13725"
   sodipodi:docname="moon-2.svg"><metadata
     id="metadata80"><rdf:RDF><cc:Work
         rdf:about=""><dc:format>image/svg+xml</dc:format><dc:type
           rdf:resource="http://purl.org/dc/dcmitype/StillImage" /><dc:title></dc:title></cc:Work></rdf:RDF></metadata><defs
     id="defs78"><pattern
       y="0"
       x="0"
       height="6"
       width="6"
       patternUnits="userSpaceOnUse"
       id="EMFhbasepattern" /><pattern
       y="0"
       x="0"
       height="6"
       width="6"
       patternUnits="userSpaceOnUse"
       id="EMFhbasepattern-5" /><pattern
       y="0"
       x="0"
       height="6"
       width="6"
       patternUnits="userSpaceOnUse"
       id="EMFhbasepattern-1" /></defs><sodipodi:namedview
     pagecolor="#ff886a"
     bordercolor="#666666"
     borderopacity="1"
     objecttolerance="10"
     gridtolerance="10"
     guidetolerance="10"
     inkscape:pageopacity="0"
     inkscape:pageshadow="2"
     inkscape:window-width="785"
     inkscape:window-height="690"
     id="namedview76"
     showgrid="false"
     inkscape:zoom="0.50878906"
     inkscape:cx="8.7609181"
     inkscape:cy="101.17854"
     inkscape:window-x="0"
     inkscape:window-y="0"
     inkscape:window-maximized="0"
     inkscape:current-layer="Layer_1"
     inkscape:snap-grids="false"
     inkscape:snap-to-guides="false"
     inkscape:snap-page="false" /><path
     inkscape:connector-curvature="0"
     d="M 256,56 C 145.72087,56 56,145.72087 56,256 56,366.28282 145.72087,456 256,456 366.27913,456 456,366.28282 456,256 456,145.72087 366.27913,56 256,56 Z m 114.86856,338.57997 c -31.42815,38.29568 -69.1183,57.4472 -113.07783,57.4472 -53.78822,0 -99.87078,-19.15152 -138.24399,-57.4472 C 81.16984,356.27692 61.98878,310.08728 61.98878,256 c 0,-53.9359 19.18106,-100.08492 57.55796,-138.46551 38.37321,-38.36583 84.45577,-57.561665 138.24399,-57.561665 43.95953,0 81.64968,19.195835 113.07783,57.561665 31.42076,38.38059 47.14222,84.52961 47.14222,138.46551 0,54.08728 -15.72146,100.27692 -47.14222,138.57997 z"
     id="path3"
     style="fill:#ffffff" /></svg>