<?xml version="1.0" encoding="UTF-8" standalone="no"?>
<!-- Generator: Adobe Illustrator 15.1.0, SVG Export Plug-In . SVG Version: 6.00 Build 0)  -->

<svg
   xmlns:dc="http://purl.org/dc/elements/1.1/"
   xmlns:cc="http://creativecommons.org/ns#"
   xmlns:rdf="http://www.w3.org/1999/02/22-rdf-syntax-ns#"
   xmlns:svg="http://www.w3.org/2000/svg"
   xmlns="http://www.w3.org/2000/svg"
   xmlns:sodipodi="http://sodipodi.sourceforge.net/DTD/sodipodi-0.dtd"
   xmlns:inkscape="http://www.inkscape.org/namespaces/inkscape"
   version="1.1"
   id="Layer_1"
   x="0px"
   y="0px"
   width="512px"
   height="512px"
   viewBox="0 0 512 512"
   enable-background="new 0 0 512 512"
   xml:space="preserve"
   inkscape:version="0.91 r13725"
   sodipodi:docname="moon-10.svg"><metadata
     id="metadata80"><rdf:RDF><cc:Work
         rdf:about=""><dc:format>image/svg+xml</dc:format><dc:type
           rdf:resource="http://purl.org/dc/dcmitype/StillImage" /><dc:title></dc:title></cc:Work></rdf:RDF></metadata><defs
     id="defs78"><pattern
       y="0"
       x="0"
       height="6"
       width="6"
       patternUnits="userSpaceOnUse"
       id="EMFhbasepattern" /><pattern
       y="0"
       x="0"
       height="6"
       width="6"
       patternUnits="userSpaceOnUse"
       id="EMFhbasepattern-5" /><pattern
       y="0"
       x="0"
       height="6"
       width="6"
       patternUnits="userSpaceOnUse"
       id="EMFhbasepattern-1" /></defs><sodipodi:namedview
     pagecolor="#ff886a"
     bordercolor="#666666"
     borderopacity="1"
     objecttolerance="10"
     gridtolerance="10"
     guidetolerance="10"
     inkscape:pageopacity="0"
     inkscape:pageshadow="2"
     inkscape:window-width="785"
     inkscape:window-height="690"
     id="namedview76"
     showgrid="false"
     inkscape:zoom="0.50878906"
     inkscape:cx="70.87716"
     inkscape:cy="101.17854"
     inkscape:window-x="0"
     inkscape:window-y="0"
     inkscape:window-maximized="0"
     inkscape:current-layer="Layer_1"
     inkscape:snap-grids="false"
     inkscape:snap-to-guides="false"
     inkscape:snap-page="false" /><path
     inkscape:connector-curvature="0"
     d="M 250.60832,455.92731 C 360.84737,458.90026 452.95436,371.63074 455.92731,261.39168 458.90036,151.14894 371.63073,59.045636 261.39168,56.072689 151.15263,53.099741 59.045735,140.36558 56.072689,250.60832 53.099741,360.84738 140.36927,452.95436 250.60832,455.92731 Z M 202.92226,115.93824 c 16.51561,-37.864212 35.42353,-56.512783 56.71618,-55.938558 53.76868,1.450043 99.30712,21.836615 136.63029,61.152758 37.33406,39.32381 55.27034,86.01395 53.81224,140.08157 -1.45403,53.91631 -21.87961,99.53126 -61.27724,136.86333 -39.39354,37.31739 -85.96208,55.26435 -139.73075,53.8143 -21.29635,-0.57432 -39.16679,-20.25907 -53.61573,-59.02851 -14.44486,-38.7841 -20.93682,-85.12497 -19.48279,-139.04127 1.4581,-54.06763 10.43937,-100.03185 26.9478,-137.90362 z"
     id="path3-6"
     style="fill:#ffffff" /></svg>