<?xml version="1.0" encoding="UTF-8" standalone="no"?>
<!-- Generator: Adobe Illustrator 15.1.0, SVG Export Plug-In . SVG Version: 6.00 Build 0)  -->

<svg
   xmlns:dc="http://purl.org/dc/elements/1.1/"
   xmlns:cc="http://creativecommons.org/ns#"
   xmlns:rdf="http://www.w3.org/1999/02/22-rdf-syntax-ns#"
   xmlns:svg="http://www.w3.org/2000/svg"
   xmlns="http://www.w3.org/2000/svg"
   xmlns:sodipodi="http://sodipodi.sourceforge.net/DTD/sodipodi-0.dtd"
   xmlns:inkscape="http://www.inkscape.org/namespaces/inkscape"
   version="1.1"
   id="Layer_1"
   x="0px"
   y="0px"
   width="512px"
   height="512px"
   viewBox="0 0 512 512"
   enable-background="new 0 0 512 512"
   xml:space="preserve"
   inkscape:version="0.91 r13725"
   sodipodi:docname="sun.svg"><metadata
     id="metadata80"><rdf:RDF><cc:Work
         rdf:about=""><dc:format>image/svg+xml</dc:format><dc:type
           rdf:resource="http://purl.org/dc/dcmitype/StillImage" /><dc:title /></cc:Work></rdf:RDF></metadata><defs
     id="defs78" /><sodipodi:namedview
     pagecolor="#ffffff"
     bordercolor="#666666"
     borderopacity="1"
     objecttolerance="10"
     gridtolerance="10"
     guidetolerance="10"
     inkscape:pageopacity="0"
     inkscape:pageshadow="2"
     inkscape:window-width="1366"
     inkscape:window-height="706"
     id="namedview76"
     showgrid="false"
     inkscape:zoom="0.4609375"
     inkscape:cx="256"
     inkscape:cy="256"
     inkscape:window-x="-8"
     inkscape:window-y="-8"
     inkscape:window-maximized="1"
     inkscape:current-layer="Layer_1" /><g
     transform="matrix(8.6954628,0,0,8.6954631,-2170.0298,-491.81417)"
     id="g17"
     style="fill:#f9f9f9"><path
       style="fill:#f9f9f9"
       inkscape:connector-curvature="0"
       d="m 279,72 c 0.552,0 1,-0.448 1,-1 l 0,-7 c 0,-0.552 -0.448,-1 -1,-1 -0.552,0 -1,0.448 -1,1 l 0,7 c 0,0.552 0.448,1 1,1 z"
       id="path19" /><path
       style="fill:#f9f9f9"
       inkscape:connector-curvature="0"
       d="m 270.633,73.51 c 0.276,0.478 0.889,0.642 1.367,0.366 0.478,-0.276 0.642,-0.888 0.365,-1.366 l -3.5,-6.062 c -0.275,-0.478 -0.888,-0.642 -1.365,-0.366 -0.479,0.276 -0.643,0.888 -0.367,1.366 l 3.5,6.062 z"
       id="path21" /><path
       style="fill:#f9f9f9"
       inkscape:connector-curvature="0"
       d="m 266.508,77.635 -6.062,-3.5 c -0.478,-0.276 -1.09,-0.112 -1.365,0.366 -0.276,0.479 -0.112,1.09 0.364,1.367 l 6.062,3.5 c 0.479,0.276 1.091,0.111 1.367,-0.367 0.276,-0.479 0.113,-1.091 -0.366,-1.366 z"
       id="path23" /><path
       style="fill:#f9f9f9"
       inkscape:connector-curvature="0"
       d="M 264.999,85.999 C 264.998,85.448 264.551,85 263.998,85 l -6.999,0 c -0.552,0 -1,0.447 -1,0.999 0,0.553 0.448,1.001 0.999,1.001 l 7,0 c 0.553,0 1.001,-0.449 1.001,-1.001 z"
       id="path25" /><path
       style="fill:#f9f9f9"
       inkscape:connector-curvature="0"
       d="m 265.508,92.636 -6.061,3.499 c -0.479,0.275 -0.643,0.888 -0.367,1.365 0.276,0.479 0.889,0.643 1.366,0.368 l 6.062,-3.5 c 0.479,-0.277 0.643,-0.889 0.367,-1.367 -0.277,-0.477 -0.889,-0.642 -1.367,-0.365 z"
       id="path27" /><path
       style="fill:#f9f9f9"
       inkscape:connector-curvature="0"
       d="m 272,98.125 c -0.479,-0.274 -1.091,-0.112 -1.367,0.368 l -3.499,6.061 c -0.276,0.478 -0.112,1.09 0.365,1.366 0.479,0.276 1.091,0.112 1.366,-0.365 l 3.5,-6.062 c 0.276,-0.479 0.112,-1.091 -0.365,-1.368 z"
       id="path29" /><path
       style="fill:#f9f9f9"
       inkscape:connector-curvature="0"
       d="m 279,100.001 c -0.553,0.002 -1,0.449 -1,1.002 l 0,6.998 c 0,0.552 0.448,1 1,1 0.552,0 1,-0.448 1,-0.999 l 0,-7 c -10e-4,-0.552 -0.449,-1 -1,-1.001 z"
       id="path31" /><path
       style="fill:#f9f9f9"
       inkscape:connector-curvature="0"
       d="m 287.367,98.493 c -0.277,-0.479 -0.89,-0.643 -1.367,-0.368 -0.478,0.278 -0.642,0.888 -0.365,1.368 l 3.499,6.06 c 0.276,0.479 0.889,0.643 1.366,0.367 0.479,-0.276 0.643,-0.888 0.367,-1.365 l -3.5,-6.062 z"
       id="path33" /><path
       style="fill:#f9f9f9"
       inkscape:connector-curvature="0"
       d="m 298.555,96.136 -6.062,-3.5 c -0.479,-0.275 -1.092,-0.111 -1.368,0.365 -0.274,0.479 -0.111,1.09 0.368,1.367 l 6.06,3.499 c 0.479,0.276 1.092,0.112 1.367,-0.366 0.275,-0.478 0.111,-1.09 -0.365,-1.365 z"
       id="path35" /><path
       style="fill:#f9f9f9"
       inkscape:connector-curvature="0"
       d="m 301.002,85 -7,0 c -0.553,0 -1.001,0.449 -1.002,1 0.002,0.553 0.448,1 1.002,1 l 6.997,0 c 0.554,0 1.002,-0.448 1.001,-1 10e-4,-0.552 -0.447,-1 -0.998,-1 z"
       id="path37" /><path
       style="fill:#f9f9f9"
       inkscape:connector-curvature="0"
       d="m 292.492,79.366 6.06,-3.499 c 0.479,-0.277 0.644,-0.889 0.366,-1.367 -0.274,-0.479 -0.887,-0.643 -1.364,-0.367 l -6.062,3.5 c -0.479,0.278 -0.643,0.89 -0.367,1.368 0.277,0.478 0.888,0.642 1.367,0.365 z"
       id="path39" /><path
       style="fill:#f9f9f9"
       inkscape:connector-curvature="0"
       d="m 286,73.876 c 0.479,0.275 1.09,0.112 1.367,-0.368 l 3.498,-6.06 c 0.277,-0.479 0.113,-1.092 -0.366,-1.367 -0.477,-0.277 -1.089,-0.113 -1.365,0.364 l -3.499,6.062 c -0.276,0.481 -0.112,1.094 0.365,1.369 z"
       id="path41" /><path
       style="fill:#f9f9f9"
       inkscape:connector-curvature="0"
       d="m 279,76 c -5.523,0 -10,4.477 -10,10 0,5.523 4.477,10 10,10 5.523,0 10,-4.477 10,-10 0,-5.523 -4.477,-10 -10,-10 z m 0,18 c -4.411,0 -8,-3.589 -8,-8 0,-4.411 3.589,-8 8,-8 4.411,0 8,3.589 8,8 0,4.411 -3.589,8 -8,8 z"
       id="path43" /></g></svg>