<?xml version="1.0" encoding="UTF-8" standalone="no"?>
<svg
   xmlns:dc="http://purl.org/dc/elements/1.1/"
   xmlns:cc="http://creativecommons.org/ns#"
   xmlns:rdf="http://www.w3.org/1999/02/22-rdf-syntax-ns#"
   xmlns:svg="http://www.w3.org/2000/svg"
   xmlns="http://www.w3.org/2000/svg"
   xmlns:sodipodi="http://sodipodi.sourceforge.net/DTD/sodipodi-0.dtd"
   xmlns:inkscape="http://www.inkscape.org/namespaces/inkscape"
   width="110"
   height="110"
   id="svg2"
   version="1.1"
   inkscape:version="0.91 r13725"
   sodipodi:docname="cogweel.svg">
  <defs
     id="defs14" />
  <sodipodi:namedview
     pagecolor="#7eff77"
     bordercolor="#666666"
     borderopacity="1"
     objecttolerance="10"
     gridtolerance="10"
     guidetolerance="10"
     inkscape:pageopacity="0"
     inkscape:pageshadow="2"
     inkscape:window-width="1366"
     inkscape:window-height="706"
     id="namedview12"
     showgrid="false"
     inkscape:zoom="2.1454545"
     inkscape:cx="54.999999"
     inkscape:cy="67.817797"
     inkscape:window-x="-8"
     inkscape:window-y="-8"
     inkscape:window-maximized="1"
     inkscape:current-layer="g5" />
  <metadata
     id="metadata2666">image/svg+xmleugrafia<rdf:RDF>
  <cc:Work
     rdf:about="">
    <dc:format>image/svg+xml</dc:format>
    <dc:type
       rdf:resource="http://purl.org/dc/dcmitype/StillImage" />
    <dc:title></dc:title>
  </cc:Work>
</rdf:RDF>
</metadata>
  <g
     id="g5">
    <title
       id="title7">Layer 1</title>
    <g
       id="layer1"
       style="fill:#ffffff">
      <g
         id="g27"
         style="fill:#ffffff">
        <path
           d="m109.483002,47.466003l-9.444031,-3.156982c-1.153992,-4.876007 -3.069977,-9.455994 -5.628967,-13.600006l4.441986,-8.903992c-3.048981,-4.020996 -6.638,-7.609006 -10.65799,-10.65701l-8.905029,4.442017c-4.142975,-2.559998 -8.722961,-4.478024 -13.597961,-5.631012l-3.157013,-9.442993c-2.46402,-0.337006 -4.977997,-0.516022 -7.535004,-0.516022c-2.557007,0 -5.070007,0.179016 -7.535004,0.516022l-3.157013,9.442993c-4.875,1.152987 -9.454987,3.071014 -13.599005,5.631012l-8.903992,-4.442017c-4.020996,3.048004 -7.609008,6.636014 -10.656006,10.65701l4.442019,8.903992c-2.559999,4.144012 -4.477996,8.723999 -5.630001,13.600006l-9.444003,3.156982c-0.337006,2.463013 -0.515991,4.977997 -0.515991,7.533997c0,2.556 0.178009,5.071014 0.515991,7.534027l9.444003,3.156982c1.153011,4.876007 3.070003,9.455994 5.628995,13.600006l-4.440002,8.903992c3.046998,4.020996 6.635013,7.609009 10.656009,10.657013l8.903992,-4.442017c4.144012,2.559998 8.723999,4.477997 13.598999,5.631012l3.157013,9.441986c2.463989,0.338013 4.977997,0.516998 7.535004,0.516998c2.556976,0 5.069977,-0.178986 7.535004,-0.516998l3.156982,-9.441986c4.875,-1.153015 9.455017,-3.071014 13.598022,-5.630005l8.904968,4.44101c4.02002,-3.048004 7.609009,-6.636017 10.656006,-10.657013l-4.440002,-8.903992c2.559021,-4.144012 4.475006,-8.723999 5.629028,-13.600006l9.44397,-3.156982c0.337036,-2.463013 0.516022,-4.978027 0.516022,-7.534027c0,-2.556 -0.178986,-5.070984 -0.516998,-7.533997zm-54.484009,45.124023c-20.76001,0 -37.589996,-16.82901 -37.589996,-37.590027c0,-20.760986 16.829987,-37.589996 37.589996,-37.589996c20.76001,0 37.589996,16.82901 37.589996,37.589996c0,20.761017 -16.829987,37.590027 -37.589996,37.590027z"
           id="path29"
           fill="#009900"
           style="fill:#ffffff" />
      </g>
    </g>
    <circle
       style="fill:#ffffff;fill-rule:evenodd;stroke:#ffffff;stroke-width:1.25047374px;stroke-linecap:butt;stroke-linejoin:miter;stroke-opacity:1"
       id="path3342"
       cx="55"
       cy="55"
       r="19.374763" />
  </g>
</svg>
