<?xml version="1.0" encoding="UTF-8" standalone="no"?>
<!-- Generator: Adobe Illustrator 15.1.0, SVG Export Plug-In . SVG Version: 6.00 Build 0)  -->

<svg
   xmlns:dc="http://purl.org/dc/elements/1.1/"
   xmlns:cc="http://creativecommons.org/ns#"
   xmlns:rdf="http://www.w3.org/1999/02/22-rdf-syntax-ns#"
   xmlns:svg="http://www.w3.org/2000/svg"
   xmlns="http://www.w3.org/2000/svg"
   xmlns:sodipodi="http://sodipodi.sourceforge.net/DTD/sodipodi-0.dtd"
   xmlns:inkscape="http://www.inkscape.org/namespaces/inkscape"
   version="1.1"
   id="Layer_1"
   x="0px"
   y="0px"
   width="512px"
   height="512px"
   viewBox="0 0 512 512"
   enable-background="new 0 0 512 512"
   xml:space="preserve"
   inkscape:version="0.91 r13725"
   sodipodi:docname="cogweel.svg"><metadata
     id="metadata80"><rdf:RDF><cc:Work
         rdf:about=""><dc:format>image/svg+xml</dc:format><dc:type
           rdf:resource="http://purl.org/dc/dcmitype/StillImage" /><dc:title></dc:title></cc:Work></rdf:RDF></metadata><defs
     id="defs78"><pattern
       y="0"
       x="0"
       height="6"
       width="6"
       patternUnits="userSpaceOnUse"
       id="EMFhbasepattern" /><pattern
       y="0"
       x="0"
       height="6"
       width="6"
       patternUnits="userSpaceOnUse"
       id="EMFhbasepattern-5" /><pattern
       y="0"
       x="0"
       height="6"
       width="6"
       patternUnits="userSpaceOnUse"
       id="EMFhbasepattern-1" /><pattern
       y="0"
       x="0"
       height="6"
       width="6"
       patternUnits="userSpaceOnUse"
       id="EMFhbasepattern-17" /><pattern
       y="0"
       x="0"
       height="6"
       width="6"
       patternUnits="userSpaceOnUse"
       id="EMFhbasepattern-8" /><pattern
       y="0"
       x="0"
       height="6"
       width="6"
       patternUnits="userSpaceOnUse"
       id="EMFhbasepattern-9" /><pattern
       y="0"
       x="0"
       height="6"
       width="6"
       patternUnits="userSpaceOnUse"
       id="EMFhbasepattern-4" /><pattern
       y="0"
       x="0"
       height="6"
       width="6"
       patternUnits="userSpaceOnUse"
       id="EMFhbasepattern-0" /></defs><sodipodi:namedview
     pagecolor="#ffffff"
     bordercolor="#666666"
     borderopacity="1"
     objecttolerance="10"
     gridtolerance="10"
     guidetolerance="10"
     inkscape:pageopacity="0"
     inkscape:pageshadow="2"
     inkscape:window-width="1366"
     inkscape:window-height="706"
     id="namedview76"
     showgrid="false"
     inkscape:zoom="0.59130859"
     inkscape:cx="-169.86828"
     inkscape:cy="461.35347"
     inkscape:window-x="-8"
     inkscape:window-y="-8"
     inkscape:window-maximized="1"
     inkscape:current-layer="Layer_1"
     inkscape:snap-grids="false"
     inkscape:snap-to-guides="false"
     inkscape:snap-page="false" /><path
     style="fill:#fff;stroke:#fff;stroke-width:1.69116437"
     d=""
     id="path4641"
     inkscape:connector-curvature="0" /><g
     id="g3"
     transform="matrix(0.65359477,0,0,0.65359477,56,56.000001)"><g
       id="g5"><path
         inkscape:connector-curvature="0"
         d="m 342.982,612 -73.975,0 c -14.775,0 -27.011,-11.073 -28.467,-25.747 l -7.584,-45.446 c -14.249,-4.43 -28.093,-10.184 -41.32,-17.141 l -38.064,27.183 c -4.551,3.772 -10.982,6.077 -17.576,6.077 -7.646,0 -14.825,-2.982 -20.236,-8.393 L 63.457,496.229 C 53.011,485.783 52.202,469.299 61.556,457.872 L 88.334,420.364 C 81.356,407.117 75.612,393.262 71.193,379.053 L 25.079,371.358 C 11.083,370.014 0,357.777 0,342.982 L 0,269.018 C 0,254.243 11.073,242.007 25.747,240.54 l 45.446,-7.605 c 4.439,-14.269 10.193,-28.113 17.131,-41.3 L 61.151,153.571 C 52.191,142.7 53,126.217 63.457,115.78 L 115.77,63.457 c 10.083,-10.062 27.345,-10.901 38.327,-1.921 l 37.559,26.789 c 13.177,-6.947 27.021,-12.691 41.3,-17.131 L 240.631,25.09 C 241.997,11.073 254.243,0 269.018,0 l 73.974,0 c 14.755,0 26.991,11.063 28.478,25.727 l 7.595,45.467 c 14.259,4.439 28.103,10.184 41.29,17.131 l 38.074,-27.183 c 4.541,-3.762 10.973,-6.058 17.565,-6.058 7.646,0 14.825,2.973 20.226,8.373 l 52.303,52.323 c 10.437,10.406 11.275,26.879 1.941,38.317 l -26.788,37.539 c 6.957,13.187 12.691,27.031 17.131,41.3 l 46.114,7.696 C 600.937,242.007 612,254.243 612,269.018 l 0,73.964 c 0,14.795 -11.073,27.021 -25.768,28.446 l -45.426,7.595 c -4.439,14.279 -10.184,28.134 -17.131,41.32 l 27.183,38.055 c 8.95,10.911 8.11,27.405 -2.346,37.821 l -52.293,52.293 c -10.042,10.052 -27.345,10.941 -38.357,1.911 l -37.508,-26.769 c -13.228,6.968 -27.071,12.722 -41.29,17.142 l -7.706,46.124 C 369.983,600.927 357.747,612 342.982,612 Z M 190.907,501.641 c 1.699,0 3.408,0.424 4.945,1.294 15.412,8.637 31.814,15.442 48.794,20.245 3.762,1.062 6.573,4.207 7.22,8.07 l 8.707,52.344 c 0.506,4.874 4.177,8.181 8.434,8.181 l 73.975,0 c 4.257,0 7.918,-3.297 8.333,-7.514 l 8.828,-53.011 c 0.637,-3.853 3.458,-6.998 7.221,-8.06 16.938,-4.794 33.341,-11.6 48.763,-20.246 3.408,-1.921 7.636,-1.688 10.821,0.597 l 43.19,30.854 c 4.359,3.509 8.799,2.78 11.751,-0.162 l 52.313,-52.313 c 3.074,-3.063 3.316,-7.888 0.586,-11.234 L 503.52,426.968 c -2.286,-3.186 -2.508,-7.402 -0.597,-10.83 8.636,-15.352 15.432,-31.754 20.226,-48.764 1.062,-3.772 4.206,-6.583 8.079,-7.23 l 52.354,-8.728 c 4.875,-0.506 8.182,-4.156 8.182,-8.414 l 0,-73.964 c 0,-4.257 -3.297,-7.928 -7.514,-8.343 l -53.011,-8.818 c -3.873,-0.647 -7.009,-3.458 -8.08,-7.23 -4.794,-17.01 -11.6,-33.413 -20.226,-48.743 -1.911,-3.429 -1.688,-7.646 0.597,-10.831 l 30.874,-43.211 c 3.125,-3.863 2.872,-8.677 -0.182,-11.731 L 481.91,77.797 c -2.942,-2.943 -8.009,-3.195 -11.205,-0.576 l -43.747,31.278 c -3.186,2.286 -7.413,2.508 -10.82,0.597 -15.361,-8.626 -31.765,-15.432 -48.764,-20.246 -3.762,-1.052 -6.573,-4.207 -7.221,-8.07 l -8.717,-52.343 c -0.536,-4.976 -4.126,-8.211 -8.454,-8.211 l -73.975,0 c -4.338,0 -7.918,3.226 -8.343,7.514 l -8.798,53 c -0.637,3.863 -3.458,7.008 -7.22,8.07 -17.03,4.824 -33.433,11.62 -48.753,20.246 -3.438,1.912 -7.655,1.689 -10.831,-0.597 L 141.83,77.585 c -4.349,-3.479 -8.808,-2.781 -11.751,0.182 L 77.767,130.08 c -3.054,3.054 -3.287,7.868 -0.556,11.195 l 31.258,43.758 c 2.286,3.195 2.508,7.412 0.597,10.831 -8.616,15.331 -15.422,31.733 -20.246,48.753 -1.052,3.762 -4.207,6.574 -8.07,7.221 l -52.343,8.727 c -4.956,0.526 -8.181,4.116 -8.181,8.455 l 0,73.964 c 0,4.328 3.216,7.908 7.493,8.322 l 53.021,8.818 c 3.863,0.638 7.008,3.459 8.07,7.23 4.783,16.919 11.589,33.332 20.246,48.784 1.912,3.418 1.689,7.625 -0.597,10.811 L 77.605,470.14 c -3.155,3.883 -2.913,8.696 0.151,11.761 l 52.313,52.303 c 2.973,2.963 8.02,3.226 11.205,0.576 l 43.748,-31.258 c 1.759,-1.245 3.822,-1.881 5.885,-1.881 z M 306.01,427.049 c -66.764,0 -121.079,-54.305 -121.079,-121.059 0,-66.764 54.315,-121.079 121.079,-121.079 66.765,0 121.069,54.315 121.069,121.079 -0.01,66.743 -54.315,121.059 -121.069,121.059 z m 0,-221.913 c -55.609,0 -100.854,45.245 -100.854,100.854 0,55.6 45.244,100.833 100.854,100.833 55.6,0 100.844,-45.233 100.844,-100.833 -0.01,-55.61 -45.245,-100.854 -100.844,-100.854 z"
         id="path7" /></g></g></svg>