<?xml version="1.0" encoding="UTF-8" standalone="no"?>
<!-- Generator: Adobe Illustrator 15.1.0, SVG Export Plug-In . SVG Version: 6.00 Build 0)  -->

<svg
   xmlns:dc="http://purl.org/dc/elements/1.1/"
   xmlns:cc="http://creativecommons.org/ns#"
   xmlns:rdf="http://www.w3.org/1999/02/22-rdf-syntax-ns#"
   xmlns:svg="http://www.w3.org/2000/svg"
   xmlns="http://www.w3.org/2000/svg"
   xmlns:sodipodi="http://sodipodi.sourceforge.net/DTD/sodipodi-0.dtd"
   xmlns:inkscape="http://www.inkscape.org/namespaces/inkscape"
   version="1.1"
   id="Layer_1"
   x="0px"
   y="0px"
   width="512px"
   height="512px"
   viewBox="0 0 512 512"
   enable-background="new 0 0 512 512"
   xml:space="preserve"
   inkscape:version="0.91 r13725"
   sodipodi:docname="drizzle.svg"><metadata
     id="metadata80"><rdf:RDF><cc:Work
         rdf:about=""><dc:format>image/svg+xml</dc:format><dc:type
           rdf:resource="http://purl.org/dc/dcmitype/StillImage" /><dc:title></dc:title></cc:Work></rdf:RDF></metadata><defs
     id="defs78"><pattern
       y="0"
       x="0"
       height="6"
       width="6"
       patternUnits="userSpaceOnUse"
       id="EMFhbasepattern" /><pattern
       y="0"
       x="0"
       height="6"
       width="6"
       patternUnits="userSpaceOnUse"
       id="EMFhbasepattern-5" /><pattern
       y="0"
       x="0"
       height="6"
       width="6"
       patternUnits="userSpaceOnUse"
       id="EMFhbasepattern-1" /></defs><sodipodi:namedview
     pagecolor="#ff9292"
     bordercolor="#666666"
     borderopacity="1"
     objecttolerance="10"
     gridtolerance="10"
     guidetolerance="10"
     inkscape:pageopacity="0"
     inkscape:pageshadow="2"
     inkscape:window-width="1366"
     inkscape:window-height="706"
     id="namedview76"
     showgrid="false"
     inkscape:zoom="1.0488281"
     inkscape:cx="256"
     inkscape:cy="294.1378"
     inkscape:window-x="-8"
     inkscape:window-y="-8"
     inkscape:window-maximized="1"
     inkscape:current-layer="Layer_1"
     inkscape:snap-grids="false"
     inkscape:snap-to-guides="false"
     inkscape:snap-page="false" /><path
     style="fill:#ffffff"
     d=""
     id="path3342"
     inkscape:connector-curvature="0" /><path
     style="fill:#ffffff"
     d=""
     id="path3344"
     inkscape:connector-curvature="0" /><g
     transform="matrix(6.0640975,0,0,6.0640975,-65.791334,43.926797)"
     id="g15"
     style="fill:#ffffff"><path
       inkscape:connector-curvature="0"
       d="m 51.995,51.636 c -5.649,0 -10.625,-3.513 -12.576,-8.707 -1.831,0.896 -3.838,1.364 -5.883,1.364 -7.418,0 -13.452,-6.034 -13.452,-13.452 0,-7.418 6.034,-13.452 13.452,-13.452 1.3,0 2.58,0.187 3.82,0.556 1.801,-5.486 6.877,-9.215 12.762,-9.215 2.854,0 5.639,0.914 7.934,2.59 2.861,-1.697 6.107,-2.59 9.443,-2.59 10.229,0 18.551,8.322 18.551,18.551 0,10.229 -8.322,18.552 -18.551,18.552 -1.365,0 -2.747,-0.16 -4.119,-0.476 -2.457,3.894 -6.736,6.279 -11.381,6.279 z M 40.107,40.024 c 0.147,0 0.294,0.027 0.435,0.084 0.35,0.139 0.611,0.438 0.704,0.803 1.248,4.931 5.669,8.375 10.749,8.375 4.089,0 7.836,-2.24 9.779,-5.844 0.261,-0.484 0.82,-0.723 1.352,-0.574 1.454,0.407 2.924,0.614 4.369,0.614 8.934,0 16.201,-7.269 16.201,-16.202 0,-8.933 -7.268,-16.201 -16.201,-16.201 -3.158,0 -6.227,0.918 -8.873,2.654 -0.434,0.283 -1,0.252 -1.396,-0.08 -1.992,-1.66 -4.516,-2.574 -7.107,-2.574 -5.221,0 -9.67,3.557 -10.819,8.648 -0.077,0.337 -0.297,0.623 -0.603,0.783 -0.307,0.16 -0.668,0.177 -0.986,0.047 -1.337,-0.545 -2.74,-0.819 -4.174,-0.819 -6.122,0 -11.103,4.98 -11.103,11.103 0,6.123 4.98,11.103 11.103,11.103 2.101,0 4.154,-0.601 5.941,-1.735 0.19,-0.122 0.41,-0.185 0.629,-0.185 z"
       id="path17"
       style="fill:#ffffff" /></g><path
     inkscape:connector-curvature="0"
     d="m 392.64898,369.10196 c 0,4.48616 -2.18265,8.12801 -4.87493,8.12801 -2.69222,0 -4.87632,-3.64185 -4.87632,-8.12801 0,-4.4861 4.87632,-16.5975 4.87632,-16.5975 0,0 4.87493,12.1114 4.87493,16.5975 z"
     id="path9-8"
     style="fill:#ffffff" /><path
     inkscape:connector-curvature="0"
     d="m 326.19096,383.21942 c 0,4.48616 -2.18265,8.12802 -4.87493,8.12802 -2.69222,0 -4.87632,-3.64186 -4.87632,-8.12802 0,-4.4861 4.87632,-16.59749 4.87632,-16.59749 0,0 4.87493,12.11139 4.87493,16.59749 z"
     id="path9-8-5"
     style="fill:#ffffff" /><path
     inkscape:connector-curvature="0"
     d="m 157.63524,366.3639 c 0,4.48616 -2.18265,8.12801 -4.87492,8.12801 -2.69222,0 -4.87633,-3.64185 -4.87633,-8.12801 0,-4.4861 4.87633,-16.5975 4.87633,-16.5975 0,0 4.87492,12.1114 4.87492,16.5975 z"
     id="path9-8-6"
     style="fill:#ffffff" /><path
     inkscape:connector-curvature="0"
     d="m 114.4428,393.75421 c 0,4.48616 -2.18265,8.12802 -4.87493,8.12802 -2.69221,0 -4.87632,-3.64186 -4.87632,-8.12802 0,-4.48609 4.87632,-16.59749 4.87632,-16.59749 0,0 4.87493,12.1114 4.87493,16.59749 z"
     id="path9-8-3"
     style="fill:#ffffff" /><path
     inkscape:connector-curvature="0"
     d="m 235.59225,397.96803 c 0,4.48616 -2.18265,8.12802 -4.87493,8.12802 -2.69221,0 -4.87632,-3.64186 -4.87632,-8.12802 0,-4.48609 4.87632,-16.59749 4.87632,-16.59749 0,0 4.87493,12.1114 4.87493,16.59749 z"
     id="path9-8-8"
     style="fill:#ffffff" /><path
     inkscape:connector-curvature="0"
     d="m 167.11652,430.62575 c 0,4.48616 -2.18265,8.12801 -4.87493,8.12801 -2.69221,0 -4.87632,-3.64185 -4.87632,-8.12801 0,-4.4861 4.87632,-16.5975 4.87632,-16.5975 0,0 4.87493,12.1114 4.87493,16.5975 z"
     id="path9-8-2"
     style="fill:#ffffff" /><path
     inkscape:connector-curvature="0"
     d="m 285.10548,424.3049 c 0,4.48615 -2.18265,8.12801 -4.87492,8.12801 -2.69222,0 -4.87633,-3.64186 -4.87633,-8.12801 0,-4.4861 4.87633,-16.5975 4.87633,-16.5975 0,0 4.87492,12.1114 4.87492,16.5975 z"
     id="path9-8-9"
     style="fill:#ffffff" /><path
     inkscape:connector-curvature="0"
     d="m 358.84861,417.98404 c 0,4.48616 -2.18265,8.12802 -4.87493,8.12802 -2.69221,0 -4.87632,-3.64186 -4.87632,-8.12802 0,-4.48609 4.87632,-16.59749 4.87632,-16.59749 0,0 4.87493,12.1114 4.87493,16.59749 z"
     id="path9-8-4"
     style="fill:#ffffff" /><path
     inkscape:connector-curvature="0"
     d="m 89.15952,336.86661 c 0,4.48616 -2.18265,8.12802 -4.87493,8.12802 -2.69222,0 -4.87632,-3.64186 -4.87632,-8.12802 0,-4.4861 4.87632,-16.59749 4.87632,-16.59749 0,0 4.87493,12.11139 4.87493,16.59749 z"
     id="path9-8-68"
     style="fill:#ffffff" /><path
     inkscape:connector-curvature="0"
     d="m 430.48476,335.81316 c 0,4.48616 -2.18265,8.12801 -4.87492,8.12801 -2.69222,0 -4.87633,-3.64185 -4.87633,-8.12801 0,-4.4861 4.87633,-16.5975 4.87633,-16.5975 0,0 4.87492,12.1114 4.87492,16.5975 z"
     id="path9-8-85"
     style="fill:#ffffff" /></svg>