<?xml version="1.0" encoding="UTF-8" standalone="no"?>
<!-- Generator: Adobe Illustrator 15.1.0, SVG Export Plug-In . SVG Version: 6.00 Build 0)  -->

<svg
   xmlns:dc="http://purl.org/dc/elements/1.1/"
   xmlns:cc="http://creativecommons.org/ns#"
   xmlns:rdf="http://www.w3.org/1999/02/22-rdf-syntax-ns#"
   xmlns:svg="http://www.w3.org/2000/svg"
   xmlns="http://www.w3.org/2000/svg"
   xmlns:sodipodi="http://sodipodi.sourceforge.net/DTD/sodipodi-0.dtd"
   xmlns:inkscape="http://www.inkscape.org/namespaces/inkscape"
   version="1.1"
   id="Layer_1"
   x="0px"
   y="0px"
   width="512px"
   height="512px"
   viewBox="0 0 512 512"
   enable-background="new 0 0 512 512"
   xml:space="preserve"
   inkscape:version="0.91 r13725"
   sodipodi:docname="high-cloud.svg"><metadata
     id="metadata80"><rdf:RDF><cc:Work
         rdf:about=""><dc:format>image/svg+xml</dc:format><dc:type
           rdf:resource="http://purl.org/dc/dcmitype/StillImage" /><dc:title></dc:title></cc:Work></rdf:RDF></metadata><defs
     id="defs78" /><sodipodi:namedview
     pagecolor="#ffffff"
     bordercolor="#666666"
     borderopacity="1"
     objecttolerance="10"
     gridtolerance="10"
     guidetolerance="10"
     inkscape:pageopacity="0"
     inkscape:pageshadow="2"
     inkscape:window-width="1366"
     inkscape:window-height="706"
     id="namedview76"
     showgrid="false"
     inkscape:zoom="0.4609375"
     inkscape:cx="256"
     inkscape:cy="256"
     inkscape:window-x="-8"
     inkscape:window-y="-8"
     inkscape:window-maximized="1"
     inkscape:current-layer="Layer_1" /><path
     inkscape:connector-curvature="0"
     style="fill:#fff"
     d="m 456,213.61535 c 0,-29.06794 -24.20833,-52.65013 -54.06667,-52.65013 -10.56666,0 -20.39166,3.00255 -28.725,8.10689 -7.8,-19.75192 -27.40833,-33.79898 -50.44166,-33.79898 -9.36667,0 -18.16667,2.32089 -25.85,6.40273 C 284.61667,126.08695 265.33333,116 243.6,116 c -27.9,0 -51.71667,16.59518 -61.88333,40.17737 -39.475,2.69418 -71.45834,31.63228 -77.75,69.03432 C 76.183333,233.63506 56,258.88083 56,288.71157 c 0,36.72849 30.583333,66.50243 68.29167,66.50243 4.98333,0 9.81666,-0.53559 14.48333,-1.52562 C 148.71667,378.43914 173.39167,396 202.33333,396 c 23.79167,0 44.70834,-11.86413 56.94167,-29.83074 13.06667,10.09506 29.56667,16.16508 47.53333,16.16508 28.65834,0 53.61667,-15.3617 66.75834,-38.05936 4.56666,0.93323 9.28333,1.45259 14.13333,1.45259 37.70833,0 68.29167,-29.78206 68.29167,-66.50244 0,-12.8785 -3.825,-24.86436 -10.33334,-35.04869 C 452.05,235.53397 456,225.07373 456,213.61535 Z m -68.29167,115.88222 c -3.53333,0 -7.13333,-0.37329 -10.70833,-1.10364 l -11.95,-2.45074 -6,10.36286 c -10.64167,18.38048 -30.65833,29.79829 -52.24167,29.79829 -13.60833,0 -26.45833,-4.37399 -37.175,-12.65129 l -14.225,-10.98771 -10.03333,14.72872 c -9.61667,14.12822 -25.70833,22.56782 -43.05,22.56782 -21.36667,0 -40.225,-12.5539 -48.04167,-31.99745 l -5.175,-12.88662 -13.89166,2.94575 c -3.625,0.77092 -7.3,1.16044 -10.93334,1.16044 -28.466663,0 -51.624997,-22.55159 -51.624997,-50.27243 0,-22.13772 14.575,-41.42708 36.258337,-48.00835 l 9.825,-2.9782 1.66666,-9.89219 c 5.425,-32.27336 33.725,-55.69325 67.29167,-55.69325 21.325,0 41.05,9.51078 54.13333,26.08973 l 8.68334,11.01205 12.51666,-6.6543 c 7.61667,-4.0575 15.91667,-6.10248 24.65834,-6.10248 21.18333,0 40.525,12.97589 48.14166,32.28959 l 7.275,18.42917 17.16667,-10.50893 c 8.275,-5.07187 17.75833,-7.74982 27.425,-7.74982 28.46667,0 51.625,22.55158 51.625,50.27243 0,27.72084 -23.15,50.28055 -51.61667,50.28055 z"
     id="path5" /></svg>