<?xml version="1.0" encoding="UTF-8" standalone="no"?>
<!-- Generator: Adobe Illustrator 15.1.0, SVG Export Plug-In . SVG Version: 6.00 Build 0)  -->

<svg
   xmlns:dc="http://purl.org/dc/elements/1.1/"
   xmlns:cc="http://creativecommons.org/ns#"
   xmlns:rdf="http://www.w3.org/1999/02/22-rdf-syntax-ns#"
   xmlns:svg="http://www.w3.org/2000/svg"
   xmlns="http://www.w3.org/2000/svg"
   xmlns:sodipodi="http://sodipodi.sourceforge.net/DTD/sodipodi-0.dtd"
   xmlns:inkscape="http://www.inkscape.org/namespaces/inkscape"
   version="1.1"
   id="Layer_1"
   x="0px"
   y="0px"
   width="512px"
   height="512px"
   viewBox="0 0 512 512"
   enable-background="new 0 0 512 512"
   xml:space="preserve"
   inkscape:version="0.91 r13725"
   sodipodi:docname="humidity-high.svg"><metadata
     id="metadata80"><rdf:RDF><cc:Work
         rdf:about=""><dc:format>image/svg+xml</dc:format><dc:type
           rdf:resource="http://purl.org/dc/dcmitype/StillImage" /><dc:title></dc:title></cc:Work></rdf:RDF></metadata><defs
     id="defs78"><pattern
       y="0"
       x="0"
       height="6"
       width="6"
       patternUnits="userSpaceOnUse"
       id="EMFhbasepattern" /><pattern
       y="0"
       x="0"
       height="6"
       width="6"
       patternUnits="userSpaceOnUse"
       id="EMFhbasepattern-5" /><pattern
       y="0"
       x="0"
       height="6"
       width="6"
       patternUnits="userSpaceOnUse"
       id="EMFhbasepattern-1" /><pattern
       y="0"
       x="0"
       height="6"
       width="6"
       patternUnits="userSpaceOnUse"
       id="EMFhbasepattern-17" /><pattern
       y="0"
       x="0"
       height="6"
       width="6"
       patternUnits="userSpaceOnUse"
       id="EMFhbasepattern-8" /><pattern
       y="0"
       x="0"
       height="6"
       width="6"
       patternUnits="userSpaceOnUse"
       id="EMFhbasepattern-9" /><pattern
       y="0"
       x="0"
       height="6"
       width="6"
       patternUnits="userSpaceOnUse"
       id="EMFhbasepattern-4" /><pattern
       y="0"
       x="0"
       height="6"
       width="6"
       patternUnits="userSpaceOnUse"
       id="EMFhbasepattern-0" /></defs><sodipodi:namedview
     pagecolor="#ffffff"
     bordercolor="#666666"
     borderopacity="1"
     objecttolerance="10"
     gridtolerance="10"
     guidetolerance="10"
     inkscape:pageopacity="0"
     inkscape:pageshadow="2"
     inkscape:window-width="785"
     inkscape:window-height="690"
     id="namedview76"
     showgrid="false"
     inkscape:zoom="0.8700728"
     inkscape:cx="166.50573"
     inkscape:cy="304.38899"
     inkscape:window-x="0"
     inkscape:window-y="0"
     inkscape:window-maximized="0"
     inkscape:current-layer="Layer_1"
     inkscape:snap-grids="false"
     inkscape:snap-to-guides="false"
     inkscape:snap-page="false" /><g
     transform="matrix(10.810811,0,0,10.810811,-177.10811,-181.83785)"
     id="g4"><path
       style="fill:#000000"
       inkscape:connector-curvature="0"
       d="M 40,59 C 33.659,59 28.5,53.841 28.5,47.5 28.5,36.917 37.662,22 40,22 41.986,22 51.5,36.368 51.5,47.5 51.5,53.841 46.341,59 40,59 Z M 39.984,24.272 C 37.889,26.55 30.5,37.888 30.5,47.5 c 0,5.238 4.262,9.5 9.5,9.5 5.238,0 9.5,-4.262 9.5,-9.5 0,-9.561 -7.382,-20.881 -9.516,-23.228 z"
       id="path6" /></g><path
     style="fill:#000000;fill-rule:evenodd;stroke:#000000;stroke-width:1px;stroke-linecap:butt;stroke-linejoin:miter;stroke-opacity:1"
     d="m 143.66614,270.64089 219.52186,-4.59732 8.0453,56.31713 -14.94127,70.10907 -45.97317,41.37585 -64.36243,12.64262 -74.70639,-33.33054 -27.5839,-59.76512 z"
     id="path3825"
     inkscape:connector-curvature="0" /><path
     style="fill:#000000"
     d="m 232.01749,453.31073 c -9.77261,-2.04285 -23.90659,-6.82139 -31.38492,-10.61089 -29.4962,-14.94665 -52.70496,-41.69391 -62.67343,-72.22889 -5.17329,-15.84662 -6.31153,-25.41393 -5.63364,-47.35279 0.87228,-28.23 6.09869,-54.90815 17.74259,-90.5667 19.82907,-60.72507 58.32464,-132.34184 87.617,-163.001811 10.08997,-10.561046 15.71052,-13.974857 20.19887,-12.268387 7.64331,2.905981 24.78928,22.806712 41.09251,47.694658 54.7679,83.60675 87.9273,187.63548 78.44493,246.09995 -7.93903,48.94893 -42.37937,86.63935 -91.96011,100.63827 -10.56565,2.98316 -42.27852,3.93057 -53.4438,1.59659 z M 257.30273,71.047442 c 38.87606,-0.64913 83.02628,130.697248 99.77174,172.861418 l -7.69056,22.33023 -0.75067,-3.62654 c -0.41288,-1.99459 -3.75303,-12.67749 -7.42258,-23.73978 C 326.97191,195.94825 304.24668,150.12371 276.63989,108.66836 266.05409,92.772326 256.2445,80.030078 254.95802,80.504495 253.14317,81.173761 241.876,96.10386 232.58727,110.1479 c -29.5299,44.6476 -54.73292,97.69238 -67.83092,142.76368 -5.8036,19.97067 40.44734,-150.50731 57.20451,-151.29166 7.7436,-0.36246 -3.53419,-29.923338 35.34187,-30.572478 z"
     id="path3827"
     inkscape:connector-curvature="0"
     sodipodi:nodetypes="ssssssssssssccssssssss" /></svg>