<?xml version="1.0" encoding="UTF-8" standalone="no"?>
<!-- Generator: Adobe Illustrator 15.1.0, SVG Export Plug-In . SVG Version: 6.00 Build 0)  -->

<svg
   xmlns:dc="http://purl.org/dc/elements/1.1/"
   xmlns:cc="http://creativecommons.org/ns#"
   xmlns:rdf="http://www.w3.org/1999/02/22-rdf-syntax-ns#"
   xmlns:svg="http://www.w3.org/2000/svg"
   xmlns="http://www.w3.org/2000/svg"
   xmlns:sodipodi="http://sodipodi.sourceforge.net/DTD/sodipodi-0.dtd"
   xmlns:inkscape="http://www.inkscape.org/namespaces/inkscape"
   version="1.1"
   id="Layer_1"
   x="0px"
   y="0px"
   width="512px"
   height="512px"
   viewBox="0 0 512 512"
   enable-background="new 0 0 512 512"
   xml:space="preserve"
   inkscape:version="0.91 r13725"
   sodipodi:docname="hurricane.svg"><metadata
     id="metadata80"><rdf:RDF><cc:Work
         rdf:about=""><dc:format>image/svg+xml</dc:format><dc:type
           rdf:resource="http://purl.org/dc/dcmitype/StillImage" /><dc:title></dc:title></cc:Work></rdf:RDF></metadata><defs
     id="defs78" /><sodipodi:namedview
     pagecolor="#ffffff"
     bordercolor="#666666"
     borderopacity="1"
     objecttolerance="10"
     gridtolerance="10"
     guidetolerance="10"
     inkscape:pageopacity="0"
     inkscape:pageshadow="2"
     inkscape:window-width="785"
     inkscape:window-height="690"
     id="namedview76"
     showgrid="false"
     inkscape:zoom="1.0175781"
     inkscape:cx="256"
     inkscape:cy="256"
     inkscape:window-x="0"
     inkscape:window-y="0"
     inkscape:window-maximized="0"
     inkscape:current-layer="Layer_1" /><path
     inkscape:connector-curvature="0"
     style="fill:#1d1d1b"
     d="M 456,138.9983 C 456,89.670688 368.14462,51.028468 255.98439,51.028468 143.84497,51.028468 56,89.670688 56,138.9983 c 0,15.66913 8.90623,30.2354 24.59618,42.84562 -4.78606,7.22071 -7.36637,14.95123 -7.36637,23.04591 0,17.2194 11.64261,32.73248 31.64,45.28027 -1.91442,4.62999 -2.91325,9.45767 -2.91325,14.44141 0,20.78814 17.52114,38.8295 46.17506,51.33568 -0.052,0.73872 -0.20809,1.46703 -0.20809,2.21615 0,14.69112 9.64494,27.77995 26.03199,37.83067 -0.0416,0.65548 -0.17688,1.31096 -0.17688,1.97685 0,21.61009 21.45403,39.48498 54.20731,48.33918 4.48433,14.79517 27.12447,27.6655 54.405,31.43192 -0.28092,0.85317 -0.55144,1.70633 -0.55144,2.60112 0,9.09351 15.44024,16.47028 34.45962,16.47028 19.05059,0 34.47002,-7.37677 34.47002,-16.47028 0,-3.62076 -2.50748,-6.92938 -6.64846,-9.65535 15.18013,-6.32592 25.66784,-16.25179 25.66784,-29.66316 0,-5.64963 -1.93523,-10.65418 -5.21264,-15.06568 8.79178,-8.08427 13.83795,-17.58356 13.83795,-27.98803 0,-7.05424 -2.38263,-13.67148 -6.59644,-19.74769 4.20341,-6.22188 6.59644,-12.93276 6.59644,-20.05983 0,-5.75367 -1.57108,-11.23683 -4.34907,-16.40785 13.68188,-10.62298 21.57888,-23.25401 21.57888,-37.13357 0,-5.45195 -1.31097,-10.70621 -3.59995,-15.75238 18.70724,-12.30849 29.45506,-27.35336 29.45506,-43.96931 0,-4.9005 -1.07166,-9.64494 -2.86123,-14.23332 C 442.15165,176.2255 456,158.47547 456,138.9983 Z M 94.04916,204.88983 c 0,-3.79763 1.43582,-7.6681 3.91208,-11.49694 13.90038,7.86578 30.77644,14.60788 50.00391,19.95578 -12.7767,5.5872 -23.27481,12.29809 -31.01574,19.85173 -14.6391,-8.82299 -22.90025,-18.74886 -22.90025,-28.31057 z M 357.6361,357.96045 c 0,5.01496 -3.53752,10.2276 -9.82182,15.00325 -5.51437,-2.65314 -11.80908,-4.76524 -18.53037,-6.34672 10.60216,-3.64157 19.73729,-8.18833 27.24932,-13.42178 0.66589,1.59189 1.10287,3.19418 1.10287,4.76525 z m -59.17024,26.01119 c 8.02185,0 15.05527,0.71791 21.19391,1.84159 -12.43334,3.4855 -27.23891,5.68084 -43.55312,5.68084 -5.35831,0 -10.53974,-0.2497 -15.54429,-0.68669 8.81259,-3.76642 21.78697,-6.83574 37.9035,-6.83574 z m -35.28157,-28.17532 c -24.26323,0 -45.73807,-4.02653 -62.07309,-10.05072 4.98374,-4.71323 12.62062,-9.14553 22.31759,-12.73508 8.22994,0.63468 16.66797,1.03005 25.38692,1.03005 22.43205,0 43.31383,-2.20575 61.97945,-6.10743 11.99636,2.52829 22.24477,6.24269 30.06893,10.57095 -16.73039,9.84263 -44.61438,17.29223 -77.6798,17.29223 z m 12.93276,-52.17843 c -20.86097,0 -39.83873,3.0277 -55.67434,8.29236 -16.19977,-1.51905 -30.90129,-4.25543 -43.66758,-7.87619 11.49695,-10.2484 34.60528,-19.17544 63.86266,-22.30719 2.25778,0.0416 4.46352,0.14566 6.7421,0.14566 9.58252,0 18.85291,-0.39537 27.94642,-0.99883 27.23891,1.52946 50.09754,8.08428 64.76785,16.48069 -8.47965,3.57914 -18.33268,6.7317 -29.35102,9.28079 -10.74782,-1.92482 -22.33841,-3.01729 -34.62609,-3.01729 z M 263.18429,259.7006 c -8.3756,0 -16.47028,0.41618 -24.25283,1.19651 -41.30576,-0.86357 -76.48329,-7.85537 -101.77656,-17.83326 11.51775,-8.51086 29.56951,-16.05411 52.26167,-21.01704 20.76733,3.14215 43.09533,4.92131 66.56782,4.92131 20.17428,0 39.5266,-1.29015 57.76564,-3.63116 19.44596,4.76525 35.06308,11.47614 45.62362,18.97776 -21.34998,8.69814 -50.04552,15.27377 -83.75601,17.68761 -4.07856,-0.19769 -8.21954,-0.30173 -12.43335,-0.30173 z m -14.36858,-64.52855 c -21.76616,0 -42.07569,2.04968 -60.31473,5.73287 -30.32905,-4.89011 -55.77839,-12.81831 -74.68332,-22.328 25.3453,-16.66797 73.29952,-29.85044 133.56223,-29.85044 66.0476,0 117.31045,15.8252 140.2211,34.70933 -19.39394,8.17791 -44.00052,14.82637 -72.62323,18.78007 -19.69567,-4.49473 -42.03407,-7.04383 -66.16205,-7.04383 z m -126.0398,69.42906 c 0,-1.51906 0.26012,-3.05892 0.70751,-4.59878 16.11653,7.08545 35.57289,12.66224 57.43269,16.42866 -11.02874,5.58721 -19.60202,12.40214 -25.28287,20.05983 -20.75692,-9.13513 -32.85733,-20.79854 -32.85733,-31.88971 z m 47.36117,59.20146 c 6.09702,1.75835 12.44375,3.35024 19.15464,4.68201 -2.83002,2.42424 -5.38952,4.97334 -7.49123,7.64729 -5.73286,-3.91209 -9.72818,-8.10509 -11.66341,-12.3293 z m 28.05046,43.19937 c 13.33854,4.45312 28.8308,7.46001 45.73807,8.79178 -4.71323,2.85083 -8.6045,6.19066 -11.47614,9.9883 -16.37664,-4.61959 -28.57068,-11.48654 -34.26193,-18.78008 z m 150.82325,34.02263 c 0,5.09819 -17.18819,17.05293 -50.53453,17.05293 -13.18246,0 -24.31525,-2.72597 -32.86773,-6.03459 3.45429,0.17687 6.96059,0.26011 10.51892,0.26011 28.16492,0 52.91716,-5.48316 71.05216,-14.59748 1.09247,1.22773 1.83118,2.40344 1.83118,3.31903 z m 8.62531,-82.87163 c 0,1.76876 -0.50982,3.55833 -1.27975,5.3479 -3.22538,-2.14333 -6.78371,-4.12018 -10.60216,-5.95136 3.704,-1.50865 7.22071,-3.10054 10.58135,-4.78606 0.78034,1.79997 1.30056,3.59995 1.30056,5.38952 z m 17.22981,-53.55183 c 0,7.18949 -5.06698,14.63909 -14.29574,21.48523 -6.79413,-5.44153 -15.32579,-10.21719 -25.28288,-14.15008 14.28535,-3.54793 27.18689,-7.93861 38.40292,-13.07842 0.6971,1.92482 1.1757,3.84965 1.1757,5.74327 z m 25.86552,-59.71128 c 0,9.15594 -7.62647,18.65522 -21.13148,27.1973 -6.49239,-6.07622 -14.78476,-11.55938 -24.61699,-16.35584 16.7304,-4.12017 31.90012,-9.24958 45.1138,-15.24255 0.36416,1.47743 0.63467,2.94446 0.63467,4.40109 z m 6.67968,-31.37989 c -26.16726,-27.35336 -86.33633,-45.61322 -160.03122,-45.61322 -67.43139,0 -123.53232,15.29458 -152.63363,38.85031 -11.49694,-8.91664 -17.93731,-18.48875 -17.93731,-27.75914 0,-31.76486 73.58044,-67.160872 179.17544,-67.160872 105.60541,0 179.20666,35.396012 179.20666,67.160872 0,11.67382 -9.9987,23.81584 -27.77994,34.52205 z"
     id="path91" /></svg>