<?xml version="1.0" encoding="UTF-8" standalone="no"?>
<!-- Generator: Adobe Illustrator 15.1.0, SVG Export Plug-In . SVG Version: 6.00 Build 0)  -->

<svg
   xmlns:dc="http://purl.org/dc/elements/1.1/"
   xmlns:cc="http://creativecommons.org/ns#"
   xmlns:rdf="http://www.w3.org/1999/02/22-rdf-syntax-ns#"
   xmlns:svg="http://www.w3.org/2000/svg"
   xmlns="http://www.w3.org/2000/svg"
   xmlns:sodipodi="http://sodipodi.sourceforge.net/DTD/sodipodi-0.dtd"
   xmlns:inkscape="http://www.inkscape.org/namespaces/inkscape"
   version="1.1"
   id="Layer_1"
   x="0px"
   y="0px"
   width="512px"
   height="512px"
   viewBox="0 0 512 512"
   enable-background="new 0 0 512 512"
   xml:space="preserve"
   inkscape:version="0.91 r13725"
   sodipodi:docname="light-cloud.svg"><metadata
     id="metadata80"><rdf:RDF><cc:Work
         rdf:about=""><dc:format>image/svg+xml</dc:format><dc:type
           rdf:resource="http://purl.org/dc/dcmitype/StillImage" /><dc:title></dc:title></cc:Work></rdf:RDF></metadata><defs
     id="defs78" /><sodipodi:namedview
     pagecolor="#ffffff"
     bordercolor="#666666"
     borderopacity="1"
     objecttolerance="10"
     gridtolerance="10"
     guidetolerance="10"
     inkscape:pageopacity="0"
     inkscape:pageshadow="2"
     inkscape:window-width="785"
     inkscape:window-height="690"
     id="namedview76"
     showgrid="false"
     inkscape:zoom="0.4609375"
     inkscape:cx="256"
     inkscape:cy="256"
     inkscape:window-x="0"
     inkscape:window-y="0"
     inkscape:window-maximized="0"
     inkscape:current-layer="Layer_1" /><g
     transform="matrix(8.6623769,0,0,9.3508931,-765.39256,-1386.1259)"
     id="g93"><path
       style="fill:#fff"
       inkscape:connector-curvature="0"
       d="m 132.287,175.743 c -0.557,0 -1.092,0.078 -1.614,0.191 0.093,-0.503 0.156,-1.017 0.156,-1.547 0,-4.746 -3.848,-8.593 -8.594,-8.593 -3.349,0 -6.245,1.917 -7.663,4.712 -1.429,-0.851 -3.089,-1.352 -4.874,-1.352 -4.767,0 -8.712,3.481 -9.458,8.038 -3.139,0.978 -5.417,3.906 -5.417,7.366 0,4.26 3.454,7.713 7.713,7.713 0.562,0 1.108,-0.062 1.636,-0.178 1.124,2.87 3.911,4.907 7.179,4.907 2.687,0 5.05,-1.376 6.431,-3.46 1.476,1.171 3.339,1.875 5.369,1.875 3.238,0 6.056,-1.781 7.54,-4.414 0.516,0.108 1.049,0.168 1.597,0.168 4.259,0 7.713,-3.454 7.713,-7.713 -0.001,-4.26 -3.455,-7.713 -7.714,-7.713 z m -3.076,0.651 c -0.355,0.156 -0.699,0.332 -1.023,0.536 -0.032,-0.084 -0.08,-0.16 -0.115,-0.243 0.368,-0.125 0.747,-0.225 1.138,-0.293 z m -11.297,-3.764 c -0.206,0.09 -0.413,0.179 -0.609,0.286 -0.036,-0.046 -0.078,-0.087 -0.114,-0.133 0.236,-0.064 0.478,-0.11 0.723,-0.153 z m 14.373,16.539 c -0.391,0 -0.79,-0.042 -1.185,-0.125 l -1.435,-0.302 -0.719,1.277 c -1.181,2.095 -3.402,3.396 -5.797,3.396 -1.51,0 -2.937,-0.499 -4.125,-1.442 l -1.707,-1.354 -1.203,1.816 c -1.064,1.605 -2.845,2.564 -4.764,2.564 -2.365,0 -4.452,-1.427 -5.316,-3.636 l -0.622,-1.589 -1.667,0.364 c -0.4,0.087 -0.807,0.132 -1.209,0.132 -3.15,0 -5.713,-2.563 -5.713,-5.713 0,-2.516 1.612,-4.709 4.012,-5.456 l 1.18,-0.368 0.199,-1.219 c 0.603,-3.686 3.75,-6.36 7.484,-6.36 2.371,0 4.565,1.086 6.02,2.98 l 1.042,1.357 1.502,-0.82 c 0.832,-0.454 1.775,-0.694 2.729,-0.694 2.344,0 4.485,1.475 5.328,3.669 l 0.873,2.272 2.06,-1.296 c 0.915,-0.576 1.964,-0.88 3.034,-0.88 3.15,0 5.713,2.563 5.713,5.713 -0.001,3.151 -2.564,5.714 -5.714,5.714 z"
       id="path95" /><path
       style="fill:#fff"
       inkscape:connector-curvature="0"
       d="m 124.375,161.872 c 0.469,0.074 0.909,-0.245 0.983,-0.714 l 0.944,-5.94 c 0.074,-0.469 -0.245,-0.909 -0.714,-0.984 -0.469,-0.074 -0.909,0.245 -0.984,0.714 l -0.944,5.94 c -0.073,0.469 0.247,0.909 0.715,0.984 z"
       id="path97" /><path
       style="fill:#1d1d1b"
       inkscape:connector-curvature="0"
       d="m 117.07,162.024 c 0.17,0.443 0.668,0.665 1.111,0.495 0.442,-0.17 0.664,-0.667 0.495,-1.109 l -2.153,-5.617 c -0.169,-0.443 -0.667,-0.665 -1.11,-0.495 -0.443,0.169 -0.665,0.667 -0.496,1.109 l 2.153,5.617 z"
       id="path99" /><path
       style="fill:#1d1d1b"
       inkscape:connector-curvature="0"
       d="m 111.932,166.304 c 0.368,0.299 0.91,0.242 1.209,-0.127 0.298,-0.368 0.242,-0.91 -0.127,-1.208 l -4.672,-3.789 c -0.368,-0.299 -0.91,-0.242 -1.208,0.126 -0.299,0.369 -0.243,0.91 0.125,1.209 l 4.673,3.789 z"
       id="path101" /><path
       style="fill:#1d1d1b"
       inkscape:connector-curvature="0"
       d="m 140.942,166.68 c -0.168,-0.443 -0.666,-0.664 -1.108,-0.495 l -5.616,2.153 c -0.444,0.171 -0.666,0.669 -0.497,1.111 0.172,0.443 0.667,0.664 1.112,0.494 l 5.614,-2.152 c 0.444,-0.171 0.666,-0.668 0.495,-1.111 z"
       id="path103" /><path
       style="fill:#1d1d1b"
       inkscape:connector-curvature="0"
       d="m 131.273,164.28 3.785,-4.671 c 0.301,-0.37 0.243,-0.912 -0.126,-1.209 -0.367,-0.299 -0.909,-0.242 -1.208,0.125 l -3.788,4.673 c -0.298,0.371 -0.242,0.912 0.126,1.21 0.371,0.298 0.911,0.242 1.211,-0.128 z"
       id="path105" /></g></svg>