<?xml version="1.0" encoding="UTF-8" standalone="no"?>
<!-- Generator: Adobe Illustrator 15.1.0, SVG Export Plug-In . SVG Version: 6.00 Build 0)  -->

<svg
   xmlns:dc="http://purl.org/dc/elements/1.1/"
   xmlns:cc="http://creativecommons.org/ns#"
   xmlns:rdf="http://www.w3.org/1999/02/22-rdf-syntax-ns#"
   xmlns:svg="http://www.w3.org/2000/svg"
   xmlns="http://www.w3.org/2000/svg"
   xmlns:sodipodi="http://sodipodi.sourceforge.net/DTD/sodipodi-0.dtd"
   xmlns:inkscape="http://www.inkscape.org/namespaces/inkscape"
   version="1.1"
   id="Layer_1"
   x="0px"
   y="0px"
   width="512px"
   height="512px"
   viewBox="0 0 512 512"
   enable-background="new 0 0 512 512"
   xml:space="preserve"
   inkscape:version="0.91 r13725"
   sodipodi:docname="lightning.svg"><metadata
     id="metadata80"><rdf:RDF><cc:Work
         rdf:about=""><dc:format>image/svg+xml</dc:format><dc:type
           rdf:resource="http://purl.org/dc/dcmitype/StillImage" /><dc:title></dc:title></cc:Work></rdf:RDF></metadata><defs
     id="defs78" /><sodipodi:namedview
     pagecolor="#ffffff"
     bordercolor="#666666"
     borderopacity="1"
     objecttolerance="10"
     gridtolerance="10"
     guidetolerance="10"
     inkscape:pageopacity="0"
     inkscape:pageshadow="2"
     inkscape:window-width="785"
     inkscape:window-height="690"
     id="namedview76"
     showgrid="false"
     inkscape:zoom="1.0175781"
     inkscape:cx="256"
     inkscape:cy="256"
     inkscape:window-x="0"
     inkscape:window-y="0"
     inkscape:window-maximized="0"
     inkscape:current-layer="Layer_1" /><g
     transform="matrix(8.6093713,0,0,8.6093713,-2139.6825,-2018.1414)"
     id="g145"><path
       style="fill:#1d1d1b"
       inkscape:connector-curvature="0"
       d="m 294.069,250.348 c -1.553,0 -2.994,0.459 -4.216,1.24 -1.145,-3.02 -4.021,-5.168 -7.401,-5.168 -1.375,0 -2.666,0.356 -3.793,0.979 -1.804,-2.383 -4.632,-3.926 -7.822,-3.926 -4.902,0 -8.96,3.632 -9.729,8.388 -3.226,1.019 -5.57,4.074 -5.57,7.683 0,4.445 3.551,8.048 7.932,8.048 0.578,0 1.14,-0.064 1.683,-0.186 0.745,1.933 2.209,3.492 4.053,4.363 l 0.463,-2.008 c -1.178,-0.665 -2.13,-1.725 -2.65,-3.074 l -0.62,-1.608 -1.682,0.375 c -0.41,0.092 -0.83,0.138 -1.248,0.138 -3.271,0 -5.932,-2.713 -5.932,-6.048 0,-2.667 1.677,-4.987 4.172,-5.775 l 1.176,-0.371 0.197,-1.217 c 0.627,-3.887 3.889,-6.707 7.754,-6.707 2.45,0 4.72,1.142 6.227,3.133 l 1.046,1.381 1.516,-0.837 c 0.876,-0.484 1.827,-0.73 2.826,-0.73 2.467,0 4.639,1.521 5.531,3.877 l 0.873,2.303 2.075,-1.327 c 0.946,-0.604 2.032,-0.925 3.138,-0.925 3.27,0 5.931,2.713 5.931,6.047 0,3.335 -2.661,6.048 -5.931,6.048 -0.404,0 -0.816,-0.044 -1.227,-0.132 l -1.447,-0.309 -0.719,1.294 c -1.191,2.144 -3.4,3.488 -5.798,3.562 l -0.462,2.004 c 0.085,0.002 0.169,0.011 0.255,0.011 3.33,0 6.228,-1.857 7.754,-4.606 0.531,0.113 1.079,0.176 1.644,0.176 4.38,0 7.931,-3.603 7.931,-8.048 10e-4,-4.445 -3.55,-8.048 -7.93,-8.048 z"
       id="path147" /><polygon
       style="fill:#1d1d1b"
       points="275.67,260 271.799,272 274.663,272 270.028,284.684 282.689,270 279.826,270 287,260 "
       id="polygon149" /></g></svg>