<?xml version="1.0" encoding="UTF-8" standalone="no"?>
<!-- Generator: Adobe Illustrator 15.1.0, SVG Export Plug-In . SVG Version: 6.00 Build 0)  -->

<svg
   xmlns:dc="http://purl.org/dc/elements/1.1/"
   xmlns:cc="http://creativecommons.org/ns#"
   xmlns:rdf="http://www.w3.org/1999/02/22-rdf-syntax-ns#"
   xmlns:svg="http://www.w3.org/2000/svg"
   xmlns="http://www.w3.org/2000/svg"
   xmlns:sodipodi="http://sodipodi.sourceforge.net/DTD/sodipodi-0.dtd"
   xmlns:inkscape="http://www.inkscape.org/namespaces/inkscape"
   version="1.1"
   id="Layer_1"
   x="0px"
   y="0px"
   width="512px"
   height="512px"
   viewBox="0 0 512 512"
   enable-background="new 0 0 512 512"
   xml:space="preserve"
   inkscape:version="0.91 r13725"
   sodipodi:docname="moon-3.svg"><metadata
     id="metadata80"><rdf:RDF><cc:Work
         rdf:about=""><dc:format>image/svg+xml</dc:format><dc:type
           rdf:resource="http://purl.org/dc/dcmitype/StillImage" /><dc:title></dc:title></cc:Work></rdf:RDF></metadata><defs
     id="defs78"><pattern
       y="0"
       x="0"
       height="6"
       width="6"
       patternUnits="userSpaceOnUse"
       id="EMFhbasepattern" /><pattern
       y="0"
       x="0"
       height="6"
       width="6"
       patternUnits="userSpaceOnUse"
       id="EMFhbasepattern-5" /><pattern
       y="0"
       x="0"
       height="6"
       width="6"
       patternUnits="userSpaceOnUse"
       id="EMFhbasepattern-1" /></defs><sodipodi:namedview
     pagecolor="#ff886a"
     bordercolor="#666666"
     borderopacity="1"
     objecttolerance="10"
     gridtolerance="10"
     guidetolerance="10"
     inkscape:pageopacity="0"
     inkscape:pageshadow="2"
     inkscape:window-width="785"
     inkscape:window-height="690"
     id="namedview76"
     showgrid="false"
     inkscape:zoom="0.50878906"
     inkscape:cx="70.87716"
     inkscape:cy="101.17854"
     inkscape:window-x="0"
     inkscape:window-y="0"
     inkscape:window-maximized="0"
     inkscape:current-layer="Layer_1"
     inkscape:snap-grids="false"
     inkscape:snap-to-guides="false"
     inkscape:snap-page="false" /><path
     inkscape:connector-curvature="0"
     d="M 265.07247,455.79412 C 375.23808,450.7916 460.79664,357.09314 455.79412,246.92753 450.79143,136.75823 357.09314,51.203359 246.92753,56.20588 136.76192,61.208402 51.203192,154.90318 56.20588,265.07247 61.208402,375.23808 154.90686,460.79664 265.07247,455.79412 Z M 134.96337,122.77339 c 29.65862,-39.68191 66.44121,-60.52343 110.35549,-62.517538 53.73285,-2.43996 100.63673,14.601432 140.70762,51.116988 40.07491,36.52276 61.3315,81.79475 63.78502,135.82635 2.44666,53.88038 -14.62122,100.85199 -51.21758,140.93394 -36.59335,40.06704 -81.7577,61.33353 -135.49055,63.77349 -43.91428,1.9941 -82.4364,-15.47226 -115.57256,-52.37294 C 114.40136,362.61792 96.602654,317.22957 94.155994,263.34919 91.702468,209.31759 105.31247,162.46233 134.96337,122.77339 Z"
     id="path3"
     style="fill:#ffffff" /></svg>