<?xml version="1.0" encoding="UTF-8" standalone="no"?>
<!-- Generator: Adobe Illustrator 15.1.0, SVG Export Plug-In . SVG Version: 6.00 Build 0)  -->

<svg
   xmlns:dc="http://purl.org/dc/elements/1.1/"
   xmlns:cc="http://creativecommons.org/ns#"
   xmlns:rdf="http://www.w3.org/1999/02/22-rdf-syntax-ns#"
   xmlns:svg="http://www.w3.org/2000/svg"
   xmlns="http://www.w3.org/2000/svg"
   xmlns:sodipodi="http://sodipodi.sourceforge.net/DTD/sodipodi-0.dtd"
   xmlns:inkscape="http://www.inkscape.org/namespaces/inkscape"
   version="1.1"
   id="Layer_1"
   x="0px"
   y="0px"
   width="512px"
   height="512px"
   viewBox="0 0 512 512"
   enable-background="new 0 0 512 512"
   xml:space="preserve"
   inkscape:version="0.91 r13725"
   sodipodi:docname="moon-2.svg"><metadata
     id="metadata80"><rdf:RDF><cc:Work
         rdf:about=""><dc:format>image/svg+xml</dc:format><dc:type
           rdf:resource="http://purl.org/dc/dcmitype/StillImage" /><dc:title></dc:title></cc:Work></rdf:RDF></metadata><defs
     id="defs78"><pattern
       y="0"
       x="0"
       height="6"
       width="6"
       patternUnits="userSpaceOnUse"
       id="EMFhbasepattern" /><pattern
       y="0"
       x="0"
       height="6"
       width="6"
       patternUnits="userSpaceOnUse"
       id="EMFhbasepattern-5" /><pattern
       y="0"
       x="0"
       height="6"
       width="6"
       patternUnits="userSpaceOnUse"
       id="EMFhbasepattern-1" /></defs><sodipodi:namedview
     pagecolor="#ffffff"
     bordercolor="#666666"
     borderopacity="1"
     objecttolerance="10"
     gridtolerance="10"
     guidetolerance="10"
     inkscape:pageopacity="0"
     inkscape:pageshadow="2"
     inkscape:window-width="785"
     inkscape:window-height="690"
     id="namedview76"
     showgrid="false"
     inkscape:zoom="0.50878906"
     inkscape:cx="8.7609181"
     inkscape:cy="101.17854"
     inkscape:window-x="0"
     inkscape:window-y="0"
     inkscape:window-maximized="0"
     inkscape:current-layer="Layer_1"
     inkscape:snap-grids="false"
     inkscape:snap-to-guides="false"
     inkscape:snap-page="false" /><path
     inkscape:connector-curvature="0"
     id="path3740"
     d="M 256.1292,56.262 C 145.6927,56.262 56,145.9547 56,256.1329 56,366.3109 145.6927,456 256.1292,456 366.3073,456 456,366.3109 456,256.1329 456,145.9547 366.3073,56.262 256.1292,56.262 Z M 143.7364,394.5475 c 31.3003,38.4794 68.949,57.5768 112.9464,57.5768 -53.9633,0 -100.2122,-19.0974 -138.6731,-57.5768 C 79.512,356.3451 60.4293,310.1146 60.4293,256.1329 c 0,-53.9818 19.0827,-100.2124 57.5804,-138.4148 38.4609,-38.4792 84.7098,-57.5804 138.6731,-57.5804 -43.9974,0 -81.6461,19.1012 -112.9464,57.5804 -31.5585,38.2024 -47.0609,84.433 -47.0609,138.4148 0,53.9817 15.5024,100.2122 47.0609,138.4146 z"
     style="fill:#fff;fill-opacity:1;fill-rule:nonzero;stroke:none" /></svg>