<?xml version="1.0" encoding="UTF-8" standalone="no"?>
<!-- Generator: Adobe Illustrator 15.1.0, SVG Export Plug-In . SVG Version: 6.00 Build 0)  -->

<svg
   xmlns:dc="http://purl.org/dc/elements/1.1/"
   xmlns:cc="http://creativecommons.org/ns#"
   xmlns:rdf="http://www.w3.org/1999/02/22-rdf-syntax-ns#"
   xmlns:svg="http://www.w3.org/2000/svg"
   xmlns="http://www.w3.org/2000/svg"
   xmlns:sodipodi="http://sodipodi.sourceforge.net/DTD/sodipodi-0.dtd"
   xmlns:inkscape="http://www.inkscape.org/namespaces/inkscape"
   version="1.1"
   id="Layer_1"
   x="0px"
   y="0px"
   width="512px"
   height="512px"
   viewBox="0 0 512 512"
   enable-background="new 0 0 512 512"
   xml:space="preserve"
   inkscape:version="0.91 r13725"
   sodipodi:docname="moon-12.svg"><metadata
     id="metadata80"><rdf:RDF><cc:Work
         rdf:about=""><dc:format>image/svg+xml</dc:format><dc:type
           rdf:resource="http://purl.org/dc/dcmitype/StillImage" /><dc:title></dc:title></cc:Work></rdf:RDF></metadata><defs
     id="defs78"><pattern
       y="0"
       x="0"
       height="6"
       width="6"
       patternUnits="userSpaceOnUse"
       id="EMFhbasepattern" /><pattern
       y="0"
       x="0"
       height="6"
       width="6"
       patternUnits="userSpaceOnUse"
       id="EMFhbasepattern-5" /><pattern
       y="0"
       x="0"
       height="6"
       width="6"
       patternUnits="userSpaceOnUse"
       id="EMFhbasepattern-1" /></defs><sodipodi:namedview
     pagecolor="#ff886a"
     bordercolor="#666666"
     borderopacity="1"
     objecttolerance="10"
     gridtolerance="10"
     guidetolerance="10"
     inkscape:pageopacity="0"
     inkscape:pageshadow="2"
     inkscape:window-width="1366"
     inkscape:window-height="706"
     id="namedview76"
     showgrid="false"
     inkscape:zoom="0.50878906"
     inkscape:cx="70.87716"
     inkscape:cy="102.16127"
     inkscape:window-x="219"
     inkscape:window-y="1072"
     inkscape:window-maximized="1"
     inkscape:current-layer="Layer_1"
     inkscape:snap-grids="false"
     inkscape:snap-to-guides="false"
     inkscape:snap-page="false" /><path
     inkscape:connector-curvature="0"
     d="M 262.67935,455.88843 C 372.89696,452.20547 459.5714,359.53827 455.88843,249.32065 452.20535,139.09935 359.53827,52.428602 249.32065,56.111565 139.10304,59.794529 52.428479,152.45805 56.111565,262.67935 59.794529,372.89696 152.46173,459.5714 262.67935,455.88843 Z M 363.72967,113.73915 C 331.12116,76.508043 292.84589,58.6322 248.9035,60.100552 c 53.90212,-1.80116 100.71273,15.789471 140.4174,52.783458 39.70838,36.99388 60.46585,82.52306 62.27219,136.58017 1.80116,53.90213 -15.87583,100.67128 -53.02334,140.3146 -37.14049,39.63199 -82.67091,60.35257 -136.57304,62.15373 43.9424,-1.46835 80.93736,-21.90741 110.9855,-61.29871 30.04764,-39.40608 44.17101,-86.05648 42.36985,-139.95861 -1.80634,-54.05711 -19.01389,-99.70492 -51.62239,-136.93604 z"
     id="path3"
     style="fill:#ffffff" /></svg>