<?xml version="1.0" encoding="UTF-8" standalone="no"?>
<!-- Generator: Adobe Illustrator 15.1.0, SVG Export Plug-In . SVG Version: 6.00 Build 0)  -->

<svg
   xmlns:dc="http://purl.org/dc/elements/1.1/"
   xmlns:cc="http://creativecommons.org/ns#"
   xmlns:rdf="http://www.w3.org/1999/02/22-rdf-syntax-ns#"
   xmlns:svg="http://www.w3.org/2000/svg"
   xmlns="http://www.w3.org/2000/svg"
   xmlns:sodipodi="http://sodipodi.sourceforge.net/DTD/sodipodi-0.dtd"
   xmlns:inkscape="http://www.inkscape.org/namespaces/inkscape"
   version="1.1"
   id="Layer_1"
   x="0px"
   y="0px"
   width="512px"
   height="512px"
   viewBox="0 0 512 512"
   enable-background="new 0 0 512 512"
   xml:space="preserve"
   inkscape:version="0.91 r13725"
   sodipodi:docname="moon-11.svg"><metadata
     id="metadata80"><rdf:RDF><cc:Work
         rdf:about=""><dc:format>image/svg+xml</dc:format><dc:type
           rdf:resource="http://purl.org/dc/dcmitype/StillImage" /><dc:title></dc:title></cc:Work></rdf:RDF></metadata><defs
     id="defs78"><pattern
       y="0"
       x="0"
       height="6"
       width="6"
       patternUnits="userSpaceOnUse"
       id="EMFhbasepattern" /><pattern
       y="0"
       x="0"
       height="6"
       width="6"
       patternUnits="userSpaceOnUse"
       id="EMFhbasepattern-5" /><pattern
       y="0"
       x="0"
       height="6"
       width="6"
       patternUnits="userSpaceOnUse"
       id="EMFhbasepattern-1" /></defs><sodipodi:namedview
     pagecolor="#ff886a"
     bordercolor="#666666"
     borderopacity="1"
     objecttolerance="10"
     gridtolerance="10"
     guidetolerance="10"
     inkscape:pageopacity="0"
     inkscape:pageshadow="2"
     inkscape:window-width="1366"
     inkscape:window-height="706"
     id="namedview76"
     showgrid="false"
     inkscape:zoom="0.50878906"
     inkscape:cx="70.87716"
     inkscape:cy="102.16127"
     inkscape:window-x="219"
     inkscape:window-y="1072"
     inkscape:window-maximized="1"
     inkscape:current-layer="Layer_1"
     inkscape:snap-grids="false"
     inkscape:snap-to-guides="false"
     inkscape:snap-page="false" /><path
     inkscape:connector-curvature="0"
     d="M 256,56 C 145.72087,56 56,145.72087 56,256 56,366.28282 145.72087,456 256,456 366.27913,456 456,366.28282 456,256 456,145.72087 366.27913,56 256,56 Z M 143.57938,394.58367 c 31.34692,38.29936 69.00384,57.4435 112.97076,57.4435 -53.93221,0 -100.12923,-19.14414 -138.57628,-57.4435 C 79.52311,356.2843 60.29774,310.08728 60.29774,256 c 0,-53.93221 19.22907,-100.08492 57.67981,-138.46552 38.44336,-38.369512 84.64038,-57.557962 138.57259,-57.557962 -43.96692,0 -81.62384,19.192142 -112.97076,57.557962 C 112.23246,155.91508 96.559,202.06779 96.559,256 c 0,54.08728 15.67346,100.2843 47.02038,138.58367 z"
     id="path3"
     style="fill:#ffffff" /></svg>