<?xml version="1.0" encoding="UTF-8" standalone="no"?>
<!-- Generator: Adobe Illustrator 18.1.1, SVG Export Plug-In . SVG Version: 6.00 Build 0)  -->

<svg
   xmlns:dc="http://purl.org/dc/elements/1.1/"
   xmlns:cc="http://creativecommons.org/ns#"
   xmlns:rdf="http://www.w3.org/1999/02/22-rdf-syntax-ns#"
   xmlns:svg="http://www.w3.org/2000/svg"
   xmlns="http://www.w3.org/2000/svg"
   xmlns:sodipodi="http://sodipodi.sourceforge.net/DTD/sodipodi-0.dtd"
   xmlns:inkscape="http://www.inkscape.org/namespaces/inkscape"
   version="1.1"
   id="Capa_1"
   x="0px"
   y="0px"
   viewBox="0 0 791.899 791.899"
   style="enable-background:new 0 0 791.899 791.899;"
   xml:space="preserve"
   inkscape:version="0.91 r13725"
   sodipodi:docname="placeholder.svg"><metadata
   id="metadata41"><rdf:RDF><cc:Work
       rdf:about=""><dc:format>image/svg+xml</dc:format><dc:type
         rdf:resource="http://purl.org/dc/dcmitype/StillImage" /></cc:Work></rdf:RDF></metadata><defs
   id="defs39" /><sodipodi:namedview
   pagecolor="#ffffff"
   bordercolor="#666666"
   borderopacity="1"
   objecttolerance="10"
   gridtolerance="10"
   guidetolerance="10"
   inkscape:pageopacity="0"
   inkscape:pageshadow="2"
   inkscape:window-width="1920"
   inkscape:window-height="1018"
   id="namedview37"
   showgrid="false"
   inkscape:zoom="0.29801781"
   inkscape:cx="395.94949"
   inkscape:cy="395.94949"
   inkscape:window-x="-8"
   inkscape:window-y="-8"
   inkscape:window-maximized="1"
   inkscape:current-layer="Capa_1" />
<g
   id="g3">
	<path
   d="M668.621,223.631C641.349,91.614,529.029,0,397.012,0c-18.585,0-37.07,2.222-55.655,5.454   C268.227,19.595,206.108,61.11,164.594,123.229c-41.413,62.221-56.766,136.36-41.413,210.5   c9.798,49.09,29.494,94.947,47.979,133.128c35.959,76.362,82.927,153.834,147.269,245.448   c14.141,19.596,28.383,39.292,43.635,58.887c0,0,0,0,0,1.111l3.232,4.343l1.111,1.111c7.677,9.798,18.585,14.141,29.494,14.141   c7.677,0,20.707-3.232,32.726-17.474c43.635-56.766,80.705-112.32,115.654-167.975c39.292-63.231,87.271-147.269,116.765-241.105   C676.197,317.366,678.419,269.387,668.621,223.631z M621.653,353.425c-28.383,89.493-75.251,170.198-112.32,231.307   c-33.838,54.544-70.907,107.977-112.32,163.632c0,0,0,1.111-1.111,1.111l-1.111-2.222c0,0,0-1.111-1.111-1.111l0,0   c-14.141-19.595-28.383-39.292-42.524-58.887c-63.231-89.493-109.088-164.743-144.037-238.883   c-17.474-35.959-35.959-78.584-44.746-124.34c-13.131-63.231,0-127.674,34.949-179.995s89.493-88.382,151.612-100.401   c16.363-3.232,31.615-4.343,47.979-4.343c113.432,0,208.379,78.584,232.317,192.015   C638.016,270.498,634.784,311.911,621.653,353.425z M393.679,146.158c-70.907,0-128.684,57.776-128.684,128.684   s57.776,128.684,128.684,128.684s128.684-57.776,128.684-128.684S464.586,146.158,393.679,146.158z M393.679,363.223   c-49.09,0-88.382-39.292-88.382-88.382s39.292-88.382,88.382-88.382s88.382,39.292,88.382,88.382S442.768,363.223,393.679,363.223z   "
   id="path5" />
</g>
<g
   id="g7">
</g>
<g
   id="g9">
</g>
<g
   id="g11">
</g>
<g
   id="g13">
</g>
<g
   id="g15">
</g>
<g
   id="g17">
</g>
<g
   id="g19">
</g>
<g
   id="g21">
</g>
<g
   id="g23">
</g>
<g
   id="g25">
</g>
<g
   id="g27">
</g>
<g
   id="g29">
</g>
<g
   id="g31">
</g>
<g
   id="g33">
</g>
<g
   id="g35">
</g>
<path
   style="fill:#f9f9f9"
   d="m 376.8695,784.01278 c -5.88018,-3.58539 -12.33555,-9.59134 -14.34526,-13.34652 -2.00972,-3.75518 -13.55327,-20.06823 -25.65234,-36.25122 C 283.54493,663.08813 223.46981,566.49484 186.05285,491.91691 135.68716,391.53013 119.57492,338.26401 120.07835,273.80914 120.98226,158.0793 195.7504,54.390602 305.1211,17.191224 354.38185,0.43656284 420.68415,-2.2977561 468.09283,10.47024 c 82.7262,22.279625 156.26486,89.287738 185.89292,169.38478 19.01699,51.41081 23.30337,116.37233 10.85861,164.56494 -22.06733,85.45633 -74.65886,190.41301 -159.6574,318.62767 -54.42212,82.09214 -83.26918,119.2772 -95.96523,123.70307 -14.99827,5.22842 -19.97839,4.80696 -32.35223,-2.73792 z m 51.61596,-76.50472 c 97.0736,-137.22439 157.83225,-246.25697 189.32359,-339.7448 12.36937,-36.7208 14.31999,-46.60372 15.66471,-79.36567 1.93874,-47.2357 -4.43544,-77.91007 -24.53193,-118.05478 C 567.18399,86.92748 488.95974,38.923849 394.78824,38.923849 c -92.56271,0 -172.46828,48.662152 -212.13104,129.186911 -20.09939,40.80649 -25.99938,65.85219 -25.68971,109.05389 0.69013,96.27874 64.52314,229.76271 203.37058,425.277 18.66352,26.28051 34.82218,47.79768 35.90813,47.81593 1.08595,0.0168 15.59361,-19.21905 32.23926,-42.74952 z"
   id="path3369"
   inkscape:connector-curvature="0" /><path
   style="fill:#f9f9f9"
   d="M 356.53448,396.57926 C 282.114,372.48958 246.06356,287.16463 280.89016,217.54272 c 10.55969,-21.10989 39.01205,-49.01803 58.97802,-57.84992 64.67787,-28.6101 137.50985,-1.34461 169.29433,63.37727 8.13985,16.57498 9.26289,22.72659 9.26289,50.73907 0,28.69989 -1.03502,34.0513 -10.38378,53.68807 -21.2689,44.67463 -61.78637,71.4206 -110.41437,72.8856 -15.87091,0.47813 -32.66854,-1.07665 -41.09277,-3.80355 z m 66.68811,-37.29839 c 19.68544,-6.7075 37.62412,-21.79107 49.06795,-41.25833 8.00639,-13.61979 9.21664,-19.23593 9.16623,-42.53565 -0.0654,-30.24642 -6.16705,-45.73468 -25.67788,-65.18044 -16.99831,-16.94162 -34.30504,-23.58147 -61.68719,-23.66672 -39.08456,-0.12169 -67.23846,17.94017 -82.89737,53.182 -5.09741,11.47221 -6.26007,20.32787 -5.33712,40.65148 1.04462,23.00298 2.48248,27.89277 12.53284,42.62082 24.28524,35.58823 65.17016,49.70117 104.83254,36.18684 z"
   id="path3371"
   inkscape:connector-curvature="0" /></svg>