<?xml version="1.0" encoding="UTF-8" standalone="no"?>
<!-- Generator: Adobe Illustrator 15.1.0, SVG Export Plug-In . SVG Version: 6.00 Build 0)  -->

<svg
   xmlns:dc="http://purl.org/dc/elements/1.1/"
   xmlns:cc="http://creativecommons.org/ns#"
   xmlns:rdf="http://www.w3.org/1999/02/22-rdf-syntax-ns#"
   xmlns:svg="http://www.w3.org/2000/svg"
   xmlns="http://www.w3.org/2000/svg"
   xmlns:sodipodi="http://sodipodi.sourceforge.net/DTD/sodipodi-0.dtd"
   xmlns:inkscape="http://www.inkscape.org/namespaces/inkscape"
   version="1.1"
   id="Layer_1"
   x="0px"
   y="0px"
   width="512px"
   height="512px"
   viewBox="0 0 512 512"
   enable-background="new 0 0 512 512"
   xml:space="preserve"
   inkscape:version="0.91 r13725"
   sodipodi:docname="rain-sun.svg"><metadata
     id="metadata80"><rdf:RDF><cc:Work
         rdf:about=""><dc:format>image/svg+xml</dc:format><dc:type
           rdf:resource="http://purl.org/dc/dcmitype/StillImage" /><dc:title></dc:title></cc:Work></rdf:RDF></metadata><defs
     id="defs78" /><sodipodi:namedview
     pagecolor="#fff"
     bordercolor="#fff"
     borderopacity="1"
     objecttolerance="10"
     gridtolerance="10"
     guidetolerance="10"
     inkscape:pageopacity="0"
     inkscape:pageshadow="2"
     inkscape:window-width="785"
     inkscape:window-height="690"
     id="namedview76"
     showgrid="false"
     inkscape:zoom="0.4609375"
     inkscape:cx="256"
     inkscape:cy="256"
     inkscape:window-x="0"
     inkscape:window-y="0"
     inkscape:window-maximized="0"
     inkscape:current-layer="Layer_1" /><g
     transform="matrix(11.05699,0,0,11.05699,-2805.8144,-1694.0486)"
     id="g107"><path
       style="fill:#fff"
       inkscape:connector-curvature="0"
       d="m 288.174,171.121 c -0.436,0 -0.855,0.062 -1.265,0.15 0.073,-0.394 0.123,-0.796 0.123,-1.211 0,-3.718 -3.015,-6.731 -6.733,-6.731 -2.623,0 -4.89,1.504 -6,3.693 -1.12,-0.667 -2.422,-1.061 -3.821,-1.061 -3.735,0 -6.825,2.728 -7.41,6.297 -2.459,0.767 -4.244,3.061 -4.244,5.771 0,3.338 2.706,6.043 6.043,6.043 0.44,0 0.868,-0.049 1.281,-0.139 0.88,2.248 3.064,3.844 5.625,3.844 2.105,0 3.956,-1.078 5.038,-2.71 1.157,0.917 2.616,1.469 4.206,1.469 2.537,0 4.745,-1.396 5.907,-3.458 0.404,0.085 0.822,0.131 1.251,0.131 3.337,0 6.042,-2.706 6.042,-6.042 -10e-4,-3.34 -2.706,-6.046 -6.043,-6.046 z m -2.411,0.511 c -0.278,0.122 -0.546,0.259 -0.801,0.419 -0.025,-0.066 -0.062,-0.125 -0.09,-0.19 0.289,-0.097 0.585,-0.175 0.891,-0.229 z m -8.849,-2.948 c -0.162,0.07 -0.324,0.14 -0.478,0.224 -0.028,-0.036 -0.061,-0.068 -0.089,-0.104 0.185,-0.051 0.375,-0.087 0.567,-0.12 z m 11.26,12.523 c -0.279,0 -0.562,-0.03 -0.84,-0.088 l -1.434,-0.302 -0.72,1.277 c -0.848,1.505 -2.443,2.44 -4.164,2.44 -1.084,0 -2.109,-0.358 -2.963,-1.036 l -1.707,-1.353 -1.203,1.815 c -0.753,1.137 -2.013,1.815 -3.371,1.815 -1.673,0 -3.15,-1.01 -3.762,-2.573 l -0.622,-1.587 -1.666,0.362 c -0.283,0.062 -0.571,0.093 -0.856,0.093 -2.229,0 -4.043,-1.813 -4.043,-4.043 0,-1.78 1.141,-3.332 2.839,-3.861 l 1.179,-0.367 0.2,-1.219 c 0.438,-2.677 2.725,-4.62 5.436,-4.62 1.722,0 3.315,0.789 4.372,2.166 l 1.042,1.356 1.501,-0.818 c 0.597,-0.326 1.248,-0.491 1.933,-0.491 1.658,0 3.173,1.043 3.77,2.596 l 0.873,2.271 2.06,-1.296 c 0.648,-0.408 1.391,-0.624 2.146,-0.624 2.229,0 4.042,1.814 4.042,4.044 0,2.23 -1.813,4.043 -4.042,4.043 z"
       id="path109" /><path
       style="fill:#fff"
       inkscape:connector-curvature="0"
       d="m 261.742,195.105 c -0.574,0.574 -0.573,1.504 0,2.078 0.573,0.573 1.503,0.572 2.076,0 0.573,-0.574 5.491,-7.431 5.837,-7.915 -0.483,0.347 -7.34,5.265 -7.913,5.837 z"
       id="path111" /><path
       style="fill:#fff"
       inkscape:connector-curvature="0"
       d="m 268.087,195.003 c -0.677,0.677 -0.676,1.773 0,2.449 0.676,0.678 1.773,0.678 2.448,0 0.676,-0.676 6.476,-8.762 6.883,-9.333 -0.569,0.409 -8.655,6.207 -9.331,6.884 z"
       id="path113" /><path
       style="fill:#fff"
       inkscape:connector-curvature="0"
       d="m 275.793,193.71 c -0.506,0.506 -0.506,1.325 0,1.833 0.506,0.506 1.327,0.505 1.832,0 0.506,-0.508 4.845,-6.557 5.15,-6.983 -0.427,0.305 -6.476,4.644 -6.982,5.15 z"
       id="path115" /><path
       style="fill:#fff"
       inkscape:connector-curvature="0"
       d="m 259.517,190.628 c -0.357,0.358 -0.357,0.938 0,1.295 0.357,0.356 0.937,0.356 1.293,0 0.357,-0.357 3.421,-4.628 3.636,-4.931 -0.301,0.216 -4.572,3.279 -4.929,3.636 z"
       id="path117" /><path
       style="fill:#fff"
       inkscape:connector-curvature="0"
       d="m 282.236,195.342 c 0.357,0.357 0.937,0.357 1.293,0 0.357,-0.356 3.421,-4.628 3.636,-4.93 -0.301,0.216 -4.572,3.279 -4.929,3.636 -0.357,0.358 -0.357,0.937 0,1.294 z"
       id="path119" /><path
       style="fill:#fff"
       inkscape:connector-curvature="0"
       d="m 281.976,160.254 c 0.367,0.059 0.712,-0.19 0.771,-0.558 l 0.74,-4.655 c 0.058,-0.367 -0.192,-0.711 -0.559,-0.771 -0.367,-0.058 -0.712,0.192 -0.771,0.56 l -0.739,4.654 c -0.06,0.368 0.19,0.712 0.558,0.77 z"
       id="path121" /><path
       style="fill:#fff"
       inkscape:connector-curvature="0"
       d="m 276.252,160.374 c 0.134,0.348 0.523,0.521 0.871,0.389 0.347,-0.134 0.521,-0.522 0.388,-0.869 l -1.687,-4.401 c -0.133,-0.347 -0.523,-0.521 -0.87,-0.388 -0.347,0.133 -0.521,0.522 -0.389,0.869 l 1.687,4.4 z"
       id="path123" /><path
       style="fill:#fff"
       inkscape:connector-curvature="0"
       d="m 272.227,163.728 c 0.289,0.234 0.713,0.189 0.948,-0.1 0.233,-0.288 0.189,-0.713 -0.1,-0.946 l -3.66,-2.968 c -0.289,-0.233 -0.713,-0.189 -0.947,0.099 -0.234,0.289 -0.19,0.713 0.098,0.947 l 3.661,2.968 z"
       id="path125" /><path
       style="fill:#fff"
       inkscape:connector-curvature="0"
       d="m 294.955,164.021 c -0.132,-0.348 -0.521,-0.521 -0.868,-0.388 l -4.4,1.687 c -0.348,0.135 -0.521,0.523 -0.389,0.871 0.135,0.347 0.522,0.521 0.871,0.387 l 4.398,-1.686 c 0.348,-0.133 0.522,-0.523 0.388,-0.871 z"
       id="path127" /><path
       style="fill:#fff"
       inkscape:connector-curvature="0"
       d="m 287.38,162.142 2.965,-3.659 c 0.236,-0.289 0.19,-0.715 -0.099,-0.947 -0.288,-0.234 -0.712,-0.189 -0.946,0.098 l -2.968,3.66 c -0.233,0.291 -0.189,0.715 0.099,0.949 0.291,0.233 0.714,0.189 0.949,-0.101 z"
       id="path129" /></g></svg>