<?xml version="1.0" encoding="UTF-8" standalone="no"?>
<!-- Generator: Adobe Illustrator 15.1.0, SVG Export Plug-In . SVG Version: 6.00 Build 0)  -->

<svg
   xmlns:dc="http://purl.org/dc/elements/1.1/"
   xmlns:cc="http://creativecommons.org/ns#"
   xmlns:rdf="http://www.w3.org/1999/02/22-rdf-syntax-ns#"
   xmlns:svg="http://www.w3.org/2000/svg"
   xmlns="http://www.w3.org/2000/svg"
   xmlns:sodipodi="http://sodipodi.sourceforge.net/DTD/sodipodi-0.dtd"
   xmlns:inkscape="http://www.inkscape.org/namespaces/inkscape"
   version="1.1"
   id="Layer_1"
   x="0px"
   y="0px"
   width="512px"
   height="512px"
   viewBox="0 0 512 512"
   enable-background="new 0 0 512 512"
   xml:space="preserve"
   inkscape:version="0.91 r13725"
   sodipodi:docname="rain.svg"><metadata
     id="metadata80"><rdf:RDF><cc:Work
         rdf:about=""><dc:format>image/svg+xml</dc:format><dc:type
           rdf:resource="http://purl.org/dc/dcmitype/StillImage" /><dc:title></dc:title></cc:Work></rdf:RDF></metadata><defs
     id="defs78" /><sodipodi:namedview
     pagecolor="#ffffff"
     bordercolor="#666666"
     borderopacity="1"
     objecttolerance="10"
     gridtolerance="10"
     guidetolerance="10"
     inkscape:pageopacity="0"
     inkscape:pageshadow="2"
     inkscape:window-width="785"
     inkscape:window-height="690"
     id="namedview76"
     showgrid="false"
     inkscape:zoom="0.4609375"
     inkscape:cx="256"
     inkscape:cy="256"
     inkscape:window-x="0"
     inkscape:window-y="0"
     inkscape:window-maximized="0"
     inkscape:current-layer="Layer_1" /><g
     transform="matrix(8.8538669,0,0,8.8538669,-1492.5316,-1290.5122)"
     id="g59"><path
       style="fill:#1d1d1b"
       inkscape:connector-curvature="0"
       d="m 213.287,161.588 c -1.508,0 -2.911,0.439 -4.099,1.188 -1.111,-2.894 -3.91,-4.952 -7.195,-4.952 -1.336,0 -2.593,0.34 -3.688,0.938 -1.754,-2.284 -4.505,-3.762 -7.606,-3.762 -4.767,0 -8.711,3.481 -9.457,8.038 -3.139,0.978 -5.418,3.906 -5.418,7.366 0,4.26 3.454,7.713 7.714,7.713 0.562,0 1.108,-0.062 1.636,-0.178 1.123,2.87 3.91,4.907 7.179,4.907 2.687,0 5.05,-1.376 6.431,-3.46 1.477,1.171 3.339,1.875 5.369,1.875 3.237,0 6.055,-1.781 7.539,-4.414 0.516,0.108 1.049,0.168 1.597,0.168 4.259,0 7.713,-3.454 7.713,-7.713 -0.002,-4.26 -3.456,-7.714 -7.715,-7.714 z m 0,13.427 c -0.391,0 -0.79,-0.042 -1.185,-0.125 l -1.434,-0.302 -0.72,1.276 c -1.181,2.095 -3.402,3.396 -5.797,3.396 -1.51,0 -2.937,-0.499 -4.126,-1.442 l -1.707,-1.354 -1.203,1.816 c -1.064,1.605 -2.845,2.564 -4.764,2.564 -2.365,0 -4.452,-1.427 -5.316,-3.636 l -0.622,-1.589 -1.667,0.364 c -0.4,0.087 -0.807,0.132 -1.209,0.132 -3.15,0 -5.714,-2.563 -5.714,-5.713 0,-2.516 1.613,-4.708 4.013,-5.456 l 1.179,-0.368 0.2,-1.219 c 0.604,-3.686 3.751,-6.361 7.483,-6.361 2.371,0 4.565,1.086 6.021,2.98 l 1.042,1.357 1.502,-0.82 c 0.832,-0.454 1.775,-0.694 2.73,-0.694 2.344,0 4.485,1.475 5.328,3.669 l 0.873,2.273 2.06,-1.298 c 0.914,-0.576 1.962,-0.88 3.033,-0.88 3.15,0 5.713,2.563 5.713,5.713 0,3.154 -2.563,5.717 -5.713,5.717 z"
       id="path61" /><path
       style="fill:#1d1d1b"
       inkscape:connector-curvature="0"
       d="m 181.372,192.202 c -0.732,0.732 -0.731,1.919 0,2.652 0.731,0.731 1.919,0.73 2.65,0 0.731,-0.733 7.009,-9.485 7.45,-10.104 -0.617,0.443 -9.368,6.721 -10.1,7.452 z"
       id="path63" /><path
       style="fill:#1d1d1b"
       inkscape:connector-curvature="0"
       d="m 189.471,192.071 c -0.864,0.863 -0.862,2.263 0,3.126 0.862,0.864 2.264,0.864 3.125,0 0.863,-0.863 8.266,-11.184 8.786,-11.913 -0.728,0.523 -11.049,7.923 -11.911,8.787 z"
       id="path65" /><path
       style="fill:#1d1d1b"
       inkscape:connector-curvature="0"
       d="m 199.308,190.42 c -0.646,0.646 -0.646,1.692 0,2.34 0.646,0.646 1.693,0.645 2.338,0 0.646,-0.647 6.185,-8.368 6.573,-8.914 -0.545,0.39 -8.266,5.928 -8.911,6.574 z"
       id="path67" /><path
       style="fill:#1d1d1b"
       inkscape:connector-curvature="0"
       d="m 178.531,186.486 c -0.456,0.457 -0.456,1.196 0,1.652 0.456,0.456 1.195,0.455 1.651,0 0.456,-0.456 4.366,-5.907 4.641,-6.293 -0.385,0.276 -5.836,4.186 -6.292,4.641 z"
       id="path69" /><path
       style="fill:#1d1d1b"
       inkscape:connector-curvature="0"
       d="m 207.531,192.504 c 0.456,0.456 1.195,0.455 1.651,0 0.456,-0.456 4.366,-5.907 4.641,-6.293 -0.385,0.275 -5.836,4.186 -6.292,4.641 -0.456,0.457 -0.456,1.196 0,1.652 z"
       id="path71" /></g></svg>