<?xml version="1.0" encoding="UTF-8" standalone="no"?>
<!-- Generator: Adobe Illustrator 15.1.0, SVG Export Plug-In . SVG Version: 6.00 Build 0)  -->

<svg
   xmlns:dc="http://purl.org/dc/elements/1.1/"
   xmlns:cc="http://creativecommons.org/ns#"
   xmlns:rdf="http://www.w3.org/1999/02/22-rdf-syntax-ns#"
   xmlns:svg="http://www.w3.org/2000/svg"
   xmlns="http://www.w3.org/2000/svg"
   xmlns:sodipodi="http://sodipodi.sourceforge.net/DTD/sodipodi-0.dtd"
   xmlns:inkscape="http://www.inkscape.org/namespaces/inkscape"
   version="1.1"
   id="Layer_1"
   x="0px"
   y="0px"
   width="512px"
   height="512px"
   viewBox="0 0 512 512"
   enable-background="new 0 0 512 512"
   xml:space="preserve"
   inkscape:version="0.91 r13725"
   sodipodi:docname="snow-rain.svg"><metadata
     id="metadata80"><rdf:RDF><cc:Work
         rdf:about=""><dc:format>image/svg+xml</dc:format><dc:type
           rdf:resource="http://purl.org/dc/dcmitype/StillImage" /><dc:title></dc:title></cc:Work></rdf:RDF></metadata><defs
     id="defs78" /><sodipodi:namedview
     pagecolor="#ffffff"
     bordercolor="#666666"
     borderopacity="1"
     objecttolerance="10"
     gridtolerance="10"
     guidetolerance="10"
     inkscape:pageopacity="0"
     inkscape:pageshadow="2"
     inkscape:window-width="785"
     inkscape:window-height="690"
     id="namedview76"
     showgrid="false"
     inkscape:zoom="0.4609375"
     inkscape:cx="256"
     inkscape:cy="256"
     inkscape:window-x="0"
     inkscape:window-y="0"
     inkscape:window-maximized="0"
     inkscape:current-layer="Layer_1" /><g
     transform="matrix(8.8542589,0,0,8.8542589,-4362.284,-1297.9699)"
     id="g215"><path
       style="clip-rule:evenodd;fill-rule:evenodd"
       inkscape:connector-curvature="0"
       d="m 527.328,180.415 c 3.237,0 6.055,-1.781 7.539,-4.414 0.516,0.108 1.049,0.168 1.597,0.168 4.259,0 7.713,-3.454 7.713,-7.713 0,-4.26 -3.454,-7.713 -7.713,-7.713 -1.508,0 -2.911,0.439 -4.099,1.188 -1.111,-2.894 -3.91,-4.952 -7.195,-4.952 -1.336,0 -2.593,0.34 -3.688,0.938 -1.754,-2.284 -4.505,-3.762 -7.606,-3.762 -4.767,0 -8.711,3.481 -9.457,8.038 -3.139,0.978 -5.418,3.906 -5.418,7.366 0,4.26 3.454,7.713 7.714,7.713 0.562,0 1.108,-0.062 1.636,-0.178 1.123,2.87 3.91,4.907 7.179,4.907 2.687,0 5.05,-1.376 6.431,-3.46 1.475,1.17 3.337,1.874 5.367,1.874 z m -7.036,-2.979 c -1.064,1.605 -2.845,2.564 -4.764,2.564 -2.365,0 -4.452,-1.427 -5.316,-3.636 l -0.622,-1.589 -1.667,0.364 c -0.399,0.087 -0.807,0.132 -1.209,0.132 -3.15,0 -5.714,-2.563 -5.714,-5.713 0,-2.516 1.612,-4.708 4.013,-5.456 l 1.18,-0.368 0.199,-1.219 c 0.604,-3.686 3.751,-6.361 7.483,-6.361 2.371,0 4.565,1.086 6.021,2.98 l 1.042,1.357 1.502,-0.82 c 0.832,-0.454 1.776,-0.694 2.73,-0.694 2.344,0 4.485,1.475 5.328,3.669 l 0.873,2.273 2.061,-1.298 c 0.913,-0.576 1.962,-0.88 3.032,-0.88 3.15,0 5.713,2.563 5.713,5.713 0,3.15 -2.562,5.713 -5.713,5.713 -0.392,0 -0.79,-0.042 -1.186,-0.125 l -1.434,-0.302 -0.72,1.276 c -1.181,2.095 -3.402,3.396 -5.797,3.396 -1.51,0 -2.937,-0.499 -4.127,-1.442 l -1.706,-1.354 -1.202,1.82 z"
       id="path217" /><path
       style="clip-rule:evenodd;fill-rule:evenodd"
       inkscape:connector-curvature="0"
       d="m 539.997,187.339 c -0.089,-0.143 -0.289,-0.191 -0.445,-0.109 l -0.857,0.451 0.118,-0.4 c 0.046,-0.158 -0.057,-0.322 -0.23,-0.364 -0.175,-0.043 -0.354,0.052 -0.4,0.211 l -0.286,0.975 -0.558,0.294 0.416,-1.417 c 0.047,-0.159 -0.057,-0.322 -0.23,-0.364 -0.174,-0.043 -0.354,0.052 -0.4,0.21 l -0.77,1.992 -1.355,0.614 0,-1.232 1.783,-1.458 c 0.127,-0.116 0.22,-0.305 0.092,-0.421 -0.127,-0.116 -0.473,-0.116 -0.601,0 l -1.274,1.037 0,-0.587 0.966,-0.714 c 0.128,-0.116 0.22,-0.305 0.092,-0.421 -0.127,-0.116 -0.471,-0.116 -0.599,0 l -0.459,0.294 0,-0.902 c 0,-0.164 0.18,-0.298 0,-0.298 -0.18,0 0,0.134 0,0.298 l 0,0.902 -0.463,-0.293 c -0.129,-0.116 -0.406,-0.116 -0.534,0 -0.127,0.116 -0.021,0.305 0.107,0.421 l 0.89,0.714 0,0.587 -1.279,-1.037 c -0.129,-0.116 -0.406,-0.116 -0.534,0 -0.127,0.116 -0.02,0.305 0.107,0.421 l 1.706,1.457 0,1.231 -1.312,-0.615 -0.656,-1.992 c -0.047,-0.158 -0.262,-0.253 -0.436,-0.21 -0.175,0.042 -0.296,0.205 -0.249,0.364 l 0.408,1.417 -0.563,-0.294 -0.288,-0.975 c -0.046,-0.159 -0.227,-0.254 -0.4,-0.211 -0.174,0.042 -0.278,0.206 -0.231,0.364 l 0.116,0.4 -0.856,-0.451 c -0.156,-0.082 -0.355,-0.033 -0.446,0.109 -0.09,0.142 -0.036,0.324 0.12,0.406 l 0.857,0.451 -0.439,0.107 c -0.174,0.043 -0.277,0.206 -0.231,0.364 0.039,0.133 0.171,0.221 0.315,0.221 0.028,0 0.057,-0.003 0.084,-0.01 l 1.07,-0.262 0.558,0.294 -1.555,0.379 c -0.174,0.043 -0.277,0.206 -0.229,0.364 0.039,0.134 0.171,0.222 0.314,0.222 0.027,0 0.057,-0.004 0.085,-0.011 l 2.185,-0.533 1.17,0.615 -1.17,0.616 -2.185,-0.534 c -0.175,-0.043 -0.354,0.052 -0.399,0.211 -0.048,0.158 0.056,0.321 0.229,0.364 l 1.555,0.38 -0.558,0.293 -1.07,-0.261 c -0.173,-0.043 -0.353,0.051 -0.399,0.21 -0.046,0.158 0.058,0.322 0.231,0.364 l 0.439,0.107 -0.857,0.451 c -0.156,0.082 -0.21,0.265 -0.12,0.406 0.061,0.096 0.17,0.149 0.283,0.149 0.056,0 0.111,-0.013 0.163,-0.04 l 0.856,-0.451 -0.117,0.4 c -0.046,0.158 0.058,0.322 0.231,0.364 0.027,0.007 0.056,0.011 0.085,0.011 0.144,0 0.275,-0.088 0.314,-0.222 l 0.286,-0.975 0.558,-0.293 -0.416,1.416 c -0.047,0.159 0.057,0.322 0.23,0.365 0.028,0.007 0.058,0.01 0.085,0.01 0.144,0 0.276,-0.088 0.315,-0.221 l 0.728,-1.991 1.312,-0.616 0,1.231 -1.742,1.458 c -0.127,0.116 -0.198,0.305 -0.071,0.421 0.064,0.058 0.111,0.087 0.195,0.087 0.084,0 0.293,-0.029 0.356,-0.087 l 1.262,-1.037 0,0.586 -0.926,0.715 c -0.127,0.116 -0.198,0.305 -0.071,0.421 0.063,0.059 0.111,0.087 0.195,0.087 0.083,0 0.292,-0.028 0.356,-0.087 l 0.445,-0.293 0,0.902 c 0,0.164 -0.18,0.298 0,0.298 0.18,0 0,-0.134 0,-0.298 l 0,-0.902 0.505,0.293 c 0.063,0.059 0.24,0.087 0.323,0.087 0.083,0 0.213,-0.028 0.276,-0.087 0.128,-0.116 -0.034,-0.305 -0.161,-0.421 l -0.942,-0.708 0,-0.587 1.321,1.037 c 0.064,0.058 0.239,0.087 0.322,0.087 0.084,0 0.213,-0.029 0.278,-0.087 0.127,-0.116 -0.035,-0.305 -0.162,-0.421 l -1.76,-1.458 0,-1.231 1.354,0.616 0.677,1.991 c 0.04,0.133 0.217,0.221 0.362,0.221 0.027,0 0.08,-0.003 0.107,-0.01 0.174,-0.043 0.289,-0.206 0.242,-0.365 l -0.411,-1.417 0.561,0.294 0.288,0.976 c 0.039,0.133 0.172,0.221 0.315,0.221 0.028,0 0.058,-0.004 0.087,-0.011 0.174,-0.042 0.276,-0.206 0.23,-0.364 l -0.118,-0.4 0.857,0.451 c 0.052,0.027 0.107,0.04 0.163,0.04 0.113,0 0.223,-0.054 0.282,-0.149 0.091,-0.142 0.038,-0.324 -0.118,-0.406 l -0.857,-0.451 0.439,-0.107 c 0.174,-0.042 0.276,-0.206 0.23,-0.364 -0.047,-0.159 -0.227,-0.253 -0.399,-0.21 l -1.071,0.261 -0.557,-0.293 1.554,-0.38 c 0.175,-0.043 0.277,-0.206 0.231,-0.364 -0.047,-0.159 -0.226,-0.254 -0.399,-0.211 l -2.186,0.534 -1.17,-0.616 1.17,-0.615 2.186,0.533 c 0.027,0.007 0.057,0.011 0.084,0.011 0.144,0 0.276,-0.088 0.315,-0.221 0.046,-0.159 -0.057,-0.322 -0.231,-0.365 l -1.554,-0.379 0.557,-0.294 1.071,0.262 c 0.027,0.007 0.056,0.01 0.083,0.01 0.145,0 0.277,-0.088 0.316,-0.221 0.046,-0.158 -0.057,-0.321 -0.23,-0.364 l -0.439,-0.107 0.857,-0.451 c 0.158,-0.086 0.211,-0.269 0.12,-0.41 z"
       id="path219" /><path
       style="clip-rule:evenodd;fill-rule:evenodd"
       inkscape:connector-curvature="0"
       d="m 509.141,181.66 c -0.057,-0.091 -0.185,-0.121 -0.284,-0.069 l -0.545,0.287 0.075,-0.255 c 0.029,-0.101 -0.036,-0.205 -0.146,-0.231 -0.111,-0.027 -0.226,0.032 -0.255,0.134 l -0.183,0.62 -0.354,0.188 0.265,-0.901 c 0.029,-0.102 -0.036,-0.205 -0.146,-0.232 -0.111,-0.027 -0.226,0.033 -0.255,0.134 l -0.47,1.268 -0.843,0.389 0,-0.783 1.115,-0.928 c 0.08,-0.074 0.129,-0.194 0.049,-0.269 -0.082,-0.073 -0.287,-0.073 -0.368,0 l -0.796,0.66 0,-0.372 0.595,-0.455 c 0.081,-0.073 0.13,-0.193 0.048,-0.268 -0.08,-0.074 -0.284,-0.074 -0.365,0 l -0.278,0.187 0,-0.574 c 0,-0.104 0.115,-0.189 0,-0.189 -0.115,0 0,0.085 0,0.189 l 0,0.574 -0.314,-0.187 c -0.082,-0.074 -0.269,-0.074 -0.351,0 -0.08,0.074 0.003,0.194 0.084,0.268 l 0.581,0.455 0,0.373 -0.834,-0.66 c -0.082,-0.073 -0.269,-0.073 -0.351,0 -0.08,0.074 0.004,0.194 0.084,0.269 l 1.101,0.928 0,0.783 -0.855,-0.392 -0.428,-1.268 c -0.029,-0.101 -0.171,-0.161 -0.281,-0.134 -0.111,0.027 -0.19,0.131 -0.16,0.232 l 0.257,0.901 -0.358,-0.188 -0.184,-0.62 c -0.029,-0.102 -0.145,-0.161 -0.256,-0.134 -0.11,0.026 -0.176,0.131 -0.146,0.231 l 0.074,0.255 -0.545,-0.287 c -0.1,-0.052 -0.227,-0.021 -0.284,0.069 -0.057,0.09 -0.023,0.207 0.076,0.259 l 0.546,0.287 -0.28,0.068 c -0.11,0.027 -0.176,0.131 -0.147,0.231 0.025,0.085 0.109,0.141 0.201,0.141 0.018,0 0.036,-0.002 0.054,-0.006 l 0.681,-0.167 0.355,0.188 -0.99,0.241 c -0.11,0.027 -0.176,0.131 -0.146,0.231 0.024,0.085 0.108,0.142 0.2,0.142 0.018,0 0.036,-0.003 0.054,-0.007 l 1.391,-0.34 0.744,0.392 -0.744,0.393 -1.391,-0.341 c -0.111,-0.027 -0.225,0.033 -0.254,0.135 -0.03,0.101 0.035,0.204 0.146,0.231 l 0.99,0.242 -0.355,0.187 -0.681,-0.166 c -0.11,-0.027 -0.225,0.032 -0.255,0.134 -0.028,0.101 0.037,0.205 0.147,0.231 l 0.28,0.068 -0.546,0.287 c -0.1,0.052 -0.134,0.168 -0.076,0.259 0.038,0.061 0.107,0.095 0.18,0.095 0.036,0 0.071,-0.008 0.104,-0.025 l 0.545,-0.287 -0.075,0.255 c -0.029,0.101 0.037,0.205 0.147,0.231 0.018,0.005 0.035,0.007 0.054,0.007 0.092,0 0.176,-0.056 0.2,-0.141 l 0.183,-0.62 0.354,-0.187 -0.265,0.9 c -0.03,0.102 0.036,0.205 0.146,0.232 0.019,0.005 0.037,0.007 0.055,0.007 0.091,0 0.176,-0.056 0.2,-0.141 l 0.482,-1.267 0.855,-0.393 0,0.783 -1.129,0.928 c -0.08,0.074 -0.136,0.194 -0.056,0.269 0.041,0.036 0.066,0.055 0.12,0.055 0.054,0 0.203,-0.019 0.244,-0.055 l 0.82,-0.66 0,0.373 -0.609,0.455 c -0.08,0.073 -0.136,0.193 -0.056,0.268 0.041,0.037 0.066,0.055 0.12,0.055 0.053,0 0.203,-0.018 0.244,-0.055 l 0.301,-0.187 0,0.574 c 0,0.104 -0.115,0.189 0,0.189 0.115,0 0,-0.085 0,-0.189 l 0,-0.574 0.302,0.187 c 0.04,0.037 0.144,0.055 0.196,0.055 0.052,0 0.13,-0.018 0.17,-0.055 0.081,-0.074 -0.004,-0.194 -0.086,-0.268 l -0.58,-0.451 0,-0.373 0.821,0.66 c 0.041,0.036 0.142,0.055 0.194,0.055 0.055,0 0.131,-0.019 0.173,-0.055 0.08,-0.074 -0.005,-0.194 -0.086,-0.269 l -1.102,-0.927 0,-0.783 0.842,0.393 0.42,1.267 c 0.025,0.085 0.133,0.141 0.226,0.141 0.018,0 0.049,-0.002 0.066,-0.007 0.11,-0.027 0.183,-0.131 0.153,-0.232 l -0.263,-0.901 0.356,0.188 0.184,0.62 c 0.024,0.085 0.108,0.141 0.2,0.141 0.018,0 0.036,-0.002 0.056,-0.007 0.11,-0.026 0.176,-0.131 0.146,-0.231 l -0.075,-0.255 0.545,0.287 c 0.033,0.018 0.068,0.025 0.104,0.025 0.072,0 0.142,-0.034 0.18,-0.095 0.058,-0.091 0.023,-0.207 -0.075,-0.259 l -0.546,-0.287 0.279,-0.068 c 0.111,-0.026 0.176,-0.131 0.146,-0.231 -0.029,-0.102 -0.144,-0.161 -0.254,-0.134 l -0.682,0.166 -0.354,-0.187 0.989,-0.242 c 0.111,-0.027 0.177,-0.131 0.147,-0.231 -0.03,-0.102 -0.144,-0.162 -0.255,-0.135 l -1.391,0.341 -0.744,-0.393 0.744,-0.392 1.391,0.34 c 0.018,0.004 0.036,0.007 0.054,0.007 0.092,0 0.176,-0.057 0.201,-0.141 0.029,-0.102 -0.036,-0.205 -0.147,-0.232 l -0.989,-0.241 0.354,-0.188 0.682,0.167 c 0.018,0.004 0.035,0.006 0.053,0.006 0.092,0 0.177,-0.056 0.201,-0.141 0.029,-0.101 -0.035,-0.204 -0.146,-0.231 l -0.279,-0.068 0.546,-0.287 c 0.099,-0.055 0.133,-0.171 0.076,-0.262 z"
       id="path221" /><path
       style="clip-rule:evenodd;fill-rule:evenodd"
       inkscape:connector-curvature="0"
       d="m 514,186 c -0.553,0 -1,0.448 -1,1 l 0,4 c 0,0.552 0.447,1 1,1 0.553,0 1,-0.448 1,-1 l 0,-4 c 0,-0.552 -0.447,-1 -1,-1 z"
       id="path223" /><path
       style="clip-rule:evenodd;fill-rule:evenodd"
       inkscape:connector-curvature="0"
       d="m 506,190 c -0.553,0 -1,0.448 -1,1 l 0,4 c 0,0.552 0.447,1 1,1 0.553,0 1,-0.448 1,-1 l 0,-4 c 0,-0.552 -0.447,-1 -1,-1 z"
       id="path225" /><path
       style="clip-rule:evenodd;fill-rule:evenodd"
       inkscape:connector-curvature="0"
       d="m 522,185 c -0.553,0 -1,0.448 -1,1 l 0,4 c 0,0.552 0.447,1 1,1 0.553,0 1,-0.448 1,-1 l 0,-4 c 0,-0.552 -0.447,-1 -1,-1 z"
       id="path227" /><path
       style="clip-rule:evenodd;fill-rule:evenodd"
       inkscape:connector-curvature="0"
       d="m 527,189 c -0.553,0 -1,0.448 -1,1 l 0,4 c 0,0.552 0.447,1 1,1 0.553,0 1,-0.448 1,-1 l 0,-4 c 0,-0.552 -0.447,-1 -1,-1 z"
       id="path229" /><path
       style="clip-rule:evenodd;fill-rule:evenodd"
       inkscape:connector-curvature="0"
       d="m 541,179 c -0.553,0 -1,0.448 -1,1 l 0,4 c 0,0.552 0.447,1 1,1 0.553,0 1,-0.448 1,-1 l 0,-4 c 0,-0.552 -0.447,-1 -1,-1 z"
       id="path231" /></g></svg>