<?xml version="1.0" encoding="UTF-8" standalone="no"?>
<!-- Generator: Adobe Illustrator 15.1.0, SVG Export Plug-In . SVG Version: 6.00 Build 0)  -->

<svg
   xmlns:dc="http://purl.org/dc/elements/1.1/"
   xmlns:cc="http://creativecommons.org/ns#"
   xmlns:rdf="http://www.w3.org/1999/02/22-rdf-syntax-ns#"
   xmlns:svg="http://www.w3.org/2000/svg"
   xmlns="http://www.w3.org/2000/svg"
   xmlns:sodipodi="http://sodipodi.sourceforge.net/DTD/sodipodi-0.dtd"
   xmlns:inkscape="http://www.inkscape.org/namespaces/inkscape"
   version="1.1"
   id="Layer_1"
   x="0px"
   y="0px"
   width="512px"
   height="512px"
   viewBox="0 0 512 512"
   enable-background="new 0 0 512 512"
   xml:space="preserve"
   inkscape:version="0.91 r13725"
   sodipodi:docname="circle-active.svg"><metadata
     id="metadata80"><rdf:RDF><cc:Work
         rdf:about=""><dc:format>image/svg+xml</dc:format><dc:type
           rdf:resource="http://purl.org/dc/dcmitype/StillImage" /><dc:title></dc:title></cc:Work></rdf:RDF></metadata><defs
     id="defs78" /><sodipodi:namedview
     pagecolor="#6a765b"
     bordercolor="#666666"
     borderopacity="1"
     objecttolerance="10"
     gridtolerance="10"
     guidetolerance="10"
     inkscape:pageopacity="0"
     inkscape:pageshadow="2"
     inkscape:window-width="1366"
     inkscape:window-height="706"
     id="namedview76"
     showgrid="false"
     inkscape:zoom="0.5"
     inkscape:cx="230.08326"
     inkscape:cy="241.82236"
     inkscape:window-x="-8"
     inkscape:window-y="-8"
     inkscape:window-maximized="1"
     inkscape:current-layer="Layer_1" /><path
     style="fill:#f9f9f9;stroke:#ffffff;stroke-width:2.18694496"
     d="M 225.27009,509.24403 C 120.34866,496.1472 34.783292,421.0027 6.9761219,317.53569 1.7693319,298.16193 1.2076916,292.24923 1.0980335,255.65375 0.96383576,210.86967 3.6801389,194.92465 17.330713,160.36608 42.564737,96.482261 97.705835,41.258812 160.47647,17.006556 197.36731,2.7532984 206.78212,1.1615604 254.5754,1.0974913 c 40.73276,-0.054611 45.22025,0.3446428 65.35862,5.8149207 144.1811,39.164555 224.80276,189.656348 177.34749,331.044328 -14.91063,44.4246 -48.15088,90.60194 -86.35126,119.95899 -50.86831,39.09241 -123.28816,59.11388 -185.66016,51.3283 z m 80.46178,-52.30279 c 77.97634,-19.25116 137.17093,-81.5643 153.80638,-161.90938 5.48973,-26.51401 4.43852,-66.59605 -2.43807,-92.96227 C 440.19238,137.24177 389.36481,81.726205 325.8864,58.753601 272.0812,39.281688 214.76945,42.765222 162.7306,68.670569 104.62505,97.595948 64.829152,148.80206 50.970122,212.47472 c -4.493012,20.6423 -4.531602,63.41043 -0.0755,83.64052 18.713897,84.95782 83.067538,148.03913 167.367828,164.05874 22.41522,4.25959 63.23215,2.75106 87.46938,-3.23274 z"
     id="path3345"
     inkscape:connector-curvature="0" /></svg>