<?xml version="1.0" encoding="UTF-8" standalone="no"?>
<!-- Generator: Adobe Illustrator 15.1.0, SVG Export Plug-In . SVG Version: 6.00 Build 0)  -->

<svg
   xmlns:dc="http://purl.org/dc/elements/1.1/"
   xmlns:cc="http://creativecommons.org/ns#"
   xmlns:rdf="http://www.w3.org/1999/02/22-rdf-syntax-ns#"
   xmlns:svg="http://www.w3.org/2000/svg"
   xmlns="http://www.w3.org/2000/svg"
   xmlns:sodipodi="http://sodipodi.sourceforge.net/DTD/sodipodi-0.dtd"
   xmlns:inkscape="http://www.inkscape.org/namespaces/inkscape"
   version="1.1"
   id="Layer_1"
   x="0px"
   y="0px"
   width="512px"
   height="512px"
   viewBox="0 0 512 512"
   enable-background="new 0 0 512 512"
   xml:space="preserve"
   inkscape:version="0.91 r13725"
   sodipodi:docname="cloud.svg"><metadata
     id="metadata80"><rdf:RDF><cc:Work
         rdf:about=""><dc:format>image/svg+xml</dc:format><dc:type
           rdf:resource="http://purl.org/dc/dcmitype/StillImage" /><dc:title></dc:title></cc:Work></rdf:RDF></metadata><defs
     id="defs78" /><sodipodi:namedview
     pagecolor="#ffffff"
     bordercolor="#666666"
     borderopacity="1"
     objecttolerance="10"
     gridtolerance="10"
     guidetolerance="10"
     inkscape:pageopacity="0"
     inkscape:pageshadow="2"
     inkscape:window-width="1366"
     inkscape:window-height="706"
     id="namedview76"
     showgrid="false"
     inkscape:zoom="0.4609375"
     inkscape:cx="256"
     inkscape:cy="256"
     inkscape:window-x="-8"
     inkscape:window-y="-8"
     inkscape:window-maximized="1"
     inkscape:current-layer="Layer_1" /><path
     inkscape:connector-curvature="0"
     style="fill:#fff"
     d="m 387.71524,182.24979 c -13.35028,0 -25.7672,4.4198 -36.29242,11.94388 -9.84187,-29.10258 -34.61739,-49.80091 -63.70966,-49.80091 -11.82525,0 -22.95048,3.42607 -32.65068,9.43587 C 239.52048,130.86835 215.16998,116 187.71107,116 145.50186,116 110.57614,151.00829 103.96766,196.82473 76.175424,206.6581 56,236.09193 56,270.892 c 0,42.83522 30.575635,77.55957 68.29308,77.55957 4.97511,0 9.81687,-0.6341 14.48365,-1.78874 C 148.72693,375.5288 173.40244,396 202.33638,396 c 23.78383,0 44.70926,-13.8273 56.94285,-34.7811 13.06694,11.7735 29.55896,18.8528 47.53432,18.8528 28.66727,0 53.61779,-17.9159 66.75973,-44.38741 4.56677,1.08839 9.28352,1.68463 14.13362,1.68463 37.71746,0 68.2931,-34.72435 68.2931,-77.55958 0.009,-42.8352 -30.56731,-77.55955 -68.28476,-77.55955 z m 0,136.19063 c -3.54174,0 -7.14181,-0.4259 -10.70856,-1.27768 l -11.95858,-2.8582 -5.99179,12.08585 c -10.64189,21.43654 -30.65897,34.75271 -52.24276,34.75271 -13.60861,0 -26.45888,-5.1011 -37.17577,-14.75474 l -14.2253,-12.81459 -10.0252,17.17766 c -9.61687,16.47727 -25.70887,26.31057 -43.0509,26.31057 -21.36711,0 -40.23417,-14.6412 -48.04266,-37.30808 l -5.17512,-15.01978 -13.87529,3.41661 c -3.65841,0.89909 -7.34182,1.36284 -10.95023,1.36284 -28.467255,0 -51.626068,-26.30116 -51.626068,-58.63105 0,-25.81849 14.575303,-48.31503 36.259088,-55.99055 l 9.83354,-3.48283 1.65836,-11.53693 c 5.42512,-37.63934 33.72571,-64.95318 67.29307,-64.95318 21.31712,0 41.05086,11.0921 54.13446,30.42758 l 8.68352,12.84298 12.51692,-7.76068 c 7.51683,-4.65641 16.05035,-7.11712 24.66719,-7.11712 21.18378,0 40.53417,15.13335 48.151,37.65826 l 7.27516,21.5028 17.16702,-12.27514 c 8.26684,-5.9057 17.74204,-9.0289 27.41723,-9.0289 28.46726,0 51.62608,26.30116 51.62608,58.63106 0,32.32989 -23.16715,58.64053 -51.63441,58.64053 z"
     id="path3" /></svg>