<?xml version="1.0" encoding="UTF-8" standalone="no"?>
<!-- Generator: Adobe Illustrator 15.1.0, SVG Export Plug-In . SVG Version: 6.00 Build 0)  -->

<svg
   xmlns:dc="http://purl.org/dc/elements/1.1/"
   xmlns:cc="http://creativecommons.org/ns#"
   xmlns:rdf="http://www.w3.org/1999/02/22-rdf-syntax-ns#"
   xmlns:svg="http://www.w3.org/2000/svg"
   xmlns="http://www.w3.org/2000/svg"
   xmlns:sodipodi="http://sodipodi.sourceforge.net/DTD/sodipodi-0.dtd"
   xmlns:inkscape="http://www.inkscape.org/namespaces/inkscape"
   version="1.1"
   id="Layer_1"
   x="0px"
   y="0px"
   width="512px"
   height="512px"
   viewBox="0 0 512 512"
   enable-background="new 0 0 512 512"
   xml:space="preserve"
   inkscape:version="0.91 r13725"
   sodipodi:docname="mist.svg"><metadata
     id="metadata80"><rdf:RDF><cc:Work
         rdf:about=""><dc:format>image/svg+xml</dc:format><dc:type
           rdf:resource="http://purl.org/dc/dcmitype/StillImage" /><dc:title></dc:title></cc:Work></rdf:RDF></metadata><defs
     id="defs78"><pattern
       y="0"
       x="0"
       height="6"
       width="6"
       patternUnits="userSpaceOnUse"
       id="EMFhbasepattern" /><pattern
       y="0"
       x="0"
       height="6"
       width="6"
       patternUnits="userSpaceOnUse"
       id="EMFhbasepattern-5" /><pattern
       y="0"
       x="0"
       height="6"
       width="6"
       patternUnits="userSpaceOnUse"
       id="EMFhbasepattern-1" /></defs><sodipodi:namedview
     pagecolor="#ff9292"
     bordercolor="#666666"
     borderopacity="1"
     objecttolerance="10"
     gridtolerance="10"
     guidetolerance="10"
     inkscape:pageopacity="0"
     inkscape:pageshadow="2"
     inkscape:window-width="1366"
     inkscape:window-height="706"
     id="namedview76"
     showgrid="false"
     inkscape:zoom="1.0488281"
     inkscape:cx="256"
     inkscape:cy="256"
     inkscape:window-x="-8"
     inkscape:window-y="-8"
     inkscape:window-maximized="1"
     inkscape:current-layer="Layer_1"
     inkscape:snap-grids="false"
     inkscape:snap-to-guides="false"
     inkscape:snap-page="false" /><path
     style="fill:#ffffff"
     d=""
     id="path3342"
     inkscape:connector-curvature="0" /><path
     style="fill:#ffffff"
     d=""
     id="path3344"
     inkscape:connector-curvature="0" /><g
     transform="matrix(6.557377,0,0,6.557377,-75.959349,-103.69964)"
     id="g3"
     style="fill:#ffffff"><rect
       x="19.833"
       y="60.446999"
       width="61"
       height="2"
       id="rect5"
       style="fill:#ffffff" /><rect
       x="19.833"
       y="64.446999"
       width="61"
       height="2"
       id="rect7"
       style="fill:#ffffff" /><rect
       x="19.833"
       y="68.446999"
       width="61"
       height="2"
       id="rect9"
       style="fill:#ffffff" /><path
       inkscape:connector-curvature="0"
       d="m 31.747,52.212 c 0,0 0.001,0 0.002,0 l 0.899,0.007 0.212,-0.716 c 2.586,-8.709 10.741,-14.792 19.831,-14.792 6.377,0 12.304,2.881 16.259,7.906 L 69.361,45.138 70,44.962 c 0.607,-0.167 1.216,-0.251 1.808,-0.251 3.761,0 6.82,3.06 6.82,6.82 0,1.361 -0.401,2.678 -1.16,3.805 l -0.437,0.65 0.525,0.58 c 0.324,0.356 0.582,0.765 0.768,1.214 l 1.848,-0.764 c -0.175,-0.425 -0.395,-0.825 -0.656,-1.197 0.729,-1.308 1.112,-2.776 1.112,-4.288 0,-4.864 -3.957,-8.82 -8.82,-8.82 -0.559,0 -1.125,0.057 -1.69,0.169 -4.332,-5.2 -10.646,-8.169 -17.427,-8.169 -9.719,0 -18.464,6.343 -21.524,15.514 -4.42,0.207 -8.375,2.74 -10.418,6.717 l 1.779,0.914 c 1.788,-3.482 5.322,-5.644 9.219,-5.644 z"
       id="path11"
       style="fill:#ffffff" /></g></svg>