<?xml version="1.0" encoding="UTF-8" standalone="no"?>
<!-- Generator: Adobe Illustrator 15.1.0, SVG Export Plug-In . SVG Version: 6.00 Build 0)  -->

<svg
   xmlns:dc="http://purl.org/dc/elements/1.1/"
   xmlns:cc="http://creativecommons.org/ns#"
   xmlns:rdf="http://www.w3.org/1999/02/22-rdf-syntax-ns#"
   xmlns:svg="http://www.w3.org/2000/svg"
   xmlns="http://www.w3.org/2000/svg"
   xmlns:sodipodi="http://sodipodi.sourceforge.net/DTD/sodipodi-0.dtd"
   xmlns:inkscape="http://www.inkscape.org/namespaces/inkscape"
   version="1.1"
   id="Layer_1"
   x="0px"
   y="0px"
   width="512px"
   height="512px"
   viewBox="0 0 512 512"
   enable-background="new 0 0 512 512"
   xml:space="preserve"
   inkscape:version="0.91 r13725"
   sodipodi:docname="snow.svg"><metadata
     id="metadata80"><rdf:RDF><cc:Work
         rdf:about=""><dc:format>image/svg+xml</dc:format><dc:type
           rdf:resource="http://purl.org/dc/dcmitype/StillImage" /><dc:title></dc:title></cc:Work></rdf:RDF></metadata><defs
     id="defs78" /><sodipodi:namedview
     pagecolor="#ffffff"
     bordercolor="#666666"
     borderopacity="1"
     objecttolerance="10"
     gridtolerance="10"
     guidetolerance="10"
     inkscape:pageopacity="0"
     inkscape:pageshadow="2"
     inkscape:window-width="785"
     inkscape:window-height="690"
     id="namedview76"
     showgrid="false"
     inkscape:zoom="0.4609375"
     inkscape:cx="256"
     inkscape:cy="256"
     inkscape:window-x="0"
     inkscape:window-y="0"
     inkscape:window-maximized="0"
     inkscape:current-layer="Layer_1" /><g
     transform="matrix(9.9969952,0,0,9.9969952,-3342.8711,-1506.6739)"
     id="g185"><path
       style="fill:#fff"
       inkscape:connector-curvature="0"
       d="m 379.347,185.562 -3.431,-1.981 1.757,-0.471 c 0.697,-0.187 1.111,-0.903 0.924,-1.599 -0.188,-0.697 -0.902,-1.111 -1.599,-0.924 l -4.28,1.147 -2.23,-1.288 6.217,-1.666 c 0.696,-0.187 1.11,-0.903 0.924,-1.6 -0.187,-0.696 -0.902,-1.11 -1.6,-0.923 l -8.74,2.341 -4.68,-2.702 4.68,-2.702 8.74,2.342 c 0.113,0.03 0.227,0.045 0.338,0.045 0.578,0 1.104,-0.385 1.262,-0.969 0.187,-0.697 -0.228,-1.413 -0.924,-1.6 l -6.217,-1.666 2.229,-1.288 4.282,1.147 c 0.113,0.03 0.227,0.045 0.338,0.045 0.576,0 1.104,-0.385 1.261,-0.968 0.188,-0.697 -0.227,-1.413 -0.923,-1.6 l -1.758,-0.471 3.431,-1.98 c 0.625,-0.36 0.838,-1.159 0.479,-1.784 -0.361,-0.624 -1.16,-0.839 -1.785,-0.478 l -3.43,1.98 0.471,-1.757 c 0.187,-0.697 -0.228,-1.413 -0.924,-1.6 -0.696,-0.187 -1.413,0.227 -1.6,0.923 l -1.146,4.28 -2.23,1.288 1.666,-6.216 c 0.188,-0.697 -0.227,-1.413 -0.924,-1.6 -0.696,-0.187 -1.412,0.227 -1.599,0.924 l -2.343,8.74 -4.68,2.703 0,-5.404 6.398,-6.398 c 0.511,-0.51 0.511,-1.337 0,-1.847 -0.509,-0.51 -1.337,-0.51 -1.847,0 l -4.552,4.552 0,-2.575 3.134,-3.133 c 0.509,-0.51 0.509,-1.337 0,-1.848 -0.511,-0.51 -1.337,-0.51 -1.848,0 l -1.286,1.287 0,-3.961 c 0,-0.721 -0.585,-1.306 -1.306,-1.306 -0.722,0 -1.307,0.584 -1.307,1.306 l 0,3.961 -1.286,-1.287 c -0.51,-0.51 -1.337,-0.51 -1.847,0 -0.51,0.511 -0.51,1.338 0,1.848 l 3.133,3.133 0,2.575 -4.552,-4.551 c -0.51,-0.51 -1.336,-0.51 -1.847,0 -0.511,0.51 -0.511,1.337 0,1.847 l 6.398,6.398 0,5.404 -4.68,-2.703 -2.343,-8.74 c -0.186,-0.696 -0.9,-1.111 -1.599,-0.923 -0.696,0.187 -1.111,0.902 -0.924,1.599 l 1.666,6.218 -2.23,-1.289 -1.147,-4.28 c -0.186,-0.697 -0.902,-1.11 -1.6,-0.923 -0.696,0.186 -1.11,0.903 -0.923,1.6 l 0.47,1.757 -3.429,-1.98 c -0.625,-0.361 -1.424,-0.147 -1.785,0.478 -0.36,0.625 -0.146,1.424 0.479,1.784 l 3.431,1.98 -1.758,0.471 c -0.696,0.187 -1.11,0.903 -0.924,1.6 0.157,0.583 0.684,0.968 1.262,0.968 0.112,0 0.225,-0.015 0.34,-0.045 l 4.278,-1.147 2.23,1.288 -6.217,1.666 c -0.696,0.187 -1.11,0.903 -0.924,1.6 0.156,0.583 0.684,0.968 1.261,0.968 0.111,0 0.226,-0.015 0.339,-0.045 l 8.74,-2.342 4.681,2.702 -4.681,2.702 -8.74,-2.342 c -0.697,-0.187 -1.414,0.227 -1.6,0.923 -0.187,0.697 0.226,1.413 0.924,1.6 l 6.217,1.666 -2.23,1.288 -4.28,-1.147 c -0.696,-0.187 -1.412,0.227 -1.6,0.924 -0.187,0.696 0.228,1.412 0.924,1.599 l 1.758,0.471 -3.431,1.981 c -0.625,0.36 -0.839,1.159 -0.479,1.784 0.243,0.419 0.681,0.653 1.133,0.653 0.221,0 0.446,-0.057 0.652,-0.175 l 3.429,-1.98 -0.47,1.757 c -0.188,0.697 0.227,1.413 0.923,1.6 0.114,0.03 0.228,0.045 0.339,0.045 0.576,0 1.104,-0.385 1.261,-0.968 l 1.147,-4.28 2.23,-1.288 -1.667,6.217 c -0.187,0.697 0.228,1.414 0.924,1.6 0.113,0.03 0.228,0.044 0.339,0.044 0.577,0 1.104,-0.385 1.261,-0.969 l 2.343,-8.74 4.68,-2.703 0,5.404 -6.398,6.398 c -0.511,0.51 -0.511,1.337 0,1.847 0.255,0.255 0.589,0.383 0.924,0.383 0.333,0 0.668,-0.127 0.923,-0.383 l 4.552,-4.552 0,2.575 -3.134,3.134 c -0.511,0.51 -0.511,1.337 0,1.847 0.255,0.254 0.59,0.382 0.924,0.382 0.334,0 0.668,-0.128 0.924,-0.382 l 1.286,-1.286 0,3.961 c 0,0.721 0.585,1.306 1.307,1.306 0.721,0 1.306,-0.584 1.306,-1.306 l 0,-3.961 1.286,1.286 c 0.255,0.254 0.59,0.382 0.924,0.382 0.334,0 0.668,-0.128 0.924,-0.382 0.509,-0.51 0.509,-1.337 0,-1.847 l -3.134,-3.133 0,-2.575 4.551,4.551 c 0.256,0.255 0.59,0.383 0.924,0.383 0.334,0 0.668,-0.127 0.924,-0.383 0.51,-0.51 0.51,-1.337 0,-1.847 l -6.398,-6.398 0,-5.404 4.68,2.703 2.341,8.741 c 0.158,0.583 0.685,0.968 1.261,0.968 0.113,0 0.227,-0.015 0.34,-0.045 0.697,-0.187 1.109,-0.903 0.924,-1.6 l -1.666,-6.218 2.23,1.288 1.146,4.28 c 0.156,0.584 0.684,0.968 1.261,0.968 0.112,0 0.226,-0.014 0.339,-0.044 0.698,-0.187 1.11,-0.903 0.924,-1.6 l -0.471,-1.757 3.43,1.98 c 0.206,0.119 0.43,0.175 0.652,0.175 0.451,0 0.891,-0.234 1.133,-0.653 0.358,-0.625 0.145,-1.424 -0.48,-1.783 z"
       id="path187" /></g></svg>